<?xml version="1.0" standalone="no"?>
<!DOCTYPE svg PUBLIC "-//W3C//DTD SVG 20010904//EN"
 "http://www.w3.org/TR/2001/REC-SVG-20010904/DTD/svg10.dtd">
<svg version="1.0" xmlns="http://www.w3.org/2000/svg"
 width="1536.000000pt" height="1024.000000pt" viewBox="0 0 1536.000000 1024.000000"
 preserveAspectRatio="xMidYMid meet">

<g transform="translate(0.000000,1024.000000) scale(0.100000,-0.100000)"
fill="#000000" stroke="none">
<path d="M1346 9288 c-8 -13 -35 -97 -60 -188 -25 -91 -92 -336 -150 -544 -59
-208 -106 -390 -106 -403 0 -13 7 -26 16 -30 18 -7 32 7 266 259 191 205 362
337 598 462 124 65 277 126 318 126 61 0 89 -84 41 -123 -13 -10 -71 -43 -129
-72 -141 -72 -232 -134 -236 -162 -2 -13 1 -23 6 -23 6 0 11 5 11 10 3 20 4
25 12 38 5 6 13 12 20 12 6 0 2 -7 -9 -15 -10 -8 -14 -15 -8 -15 6 0 17 7 24
15 7 8 9 15 4 15 -4 0 1 6 11 14 11 8 24 12 29 9 5 -4 6 -1 3 4 -4 6 -1 13 7
16 10 4 13 -1 10 -16 -3 -16 -1 -15 6 4 8 20 16 25 30 22 15 -4 17 -9 10 -23
-7 -13 -6 -21 2 -26 6 -4 8 -3 5 3 -4 6 2 22 13 34 15 19 21 21 28 11 14 -21
19 -19 45 15 22 30 25 31 45 17 20 -14 26 -12 23 9 0 4 9 7 22 7 18 0 19 -2 7
-10 -20 -13 -4 -13 21 1 11 5 17 14 14 19 -3 6 1 7 10 4 10 -4 14 -13 10 -23
-3 -9 8 -3 24 13 17 17 31 26 31 22 0 -5 7 -3 16 4 12 11 15 11 12 0 -2 -7 3
-15 11 -18 8 -3 11 0 7 7 -9 14 0 14 25 0 11 -5 17 -15 13 -22 -4 -7 -3 -8 2
-4 5 5 9 14 9 20 0 18 103 16 110 -2 15 -38 -123 -131 -256 -172 -63 -19 -103
-37 -109 -49 -8 -15 5 -37 73 -122 45 -56 113 -142 150 -190 l68 -88 -166 0
c-231 0 -220 -6 -406 213 -75 88 -109 136 -109 153 0 15 16 42 41 69 23 25 37
45 31 45 -22 0 -82 -83 -82 -115 0 -44 228 -308 301 -347 50 -27 55 -28 220
-28 92 0 170 4 173 8 2 4 -19 37 -47 73 -29 36 -94 118 -144 183 -51 64 -93
122 -93 130 0 21 19 31 90 50 156 42 274 135 338 265 34 68 37 82 37 155 -1
102 -26 163 -96 228 -96 90 -82 88 -694 88 l-535 0 -14 -22z m1275 -475 c-17
-32 -40 -58 -41 -47 0 6 7 17 15 24 8 7 13 16 10 20 -4 7 5 14 23 19 1 1 -2
-7 -7 -16z m-111 -7 c0 -8 -9 -14 -19 -13 -11 0 -17 5 -15 9 3 5 10 6 15 3 5
-4 9 -1 9 4 0 6 2 11 5 11 3 0 5 -6 5 -14z m60 -7 c13 -9 12 -10 -2 -5 -11 3
-18 0 -19 -7 0 -9 -2 -9 -6 1 -2 6 -10 9 -15 6 -7 -4 -8 -2 -4 4 9 15 26 15
46 1z m-113 -21 c-3 -8 -6 -5 -6 6 -1 11 2 17 5 13 3 -3 4 -12 1 -19z m-294
-19 c-6 -6 -9 -17 -6 -25 3 -8 -3 -12 -16 -11 -14 1 -20 7 -18 17 2 8 9 14 15
13 7 -2 12 2 12 7 0 6 5 10 12 10 9 0 9 -3 1 -11z m94 5 c-3 -3 -12 -4 -19 -1
-8 3 -5 6 6 6 11 1 17 -2 13 -5z"/>
<path d="M8247 9143 c-4 -3 -7 -111 -7 -240 l0 -233 55 0 55 0 0 95 0 95 105
0 105 0 0 -95 0 -95 58 0 57 0 -3 240 -3 240 -54 0 -55 0 0 -95 0 -95 -105 0
-105 0 0 95 0 95 -48 0 c-27 0 -52 -3 -55 -7z"/>
<path d="M8769 8938 c0 -117 -2 -225 -3 -240 l-2 -28 178 0 178 0 0 45 0 45
-125 0 -125 0 0 55 0 55 110 0 110 0 0 45 0 45 -111 0 -110 0 3 48 3 47 123 3
122 3 0 44 0 45 -175 0 -175 0 -1 -212z"/>
<path d="M9281 8923 c-51 -124 -95 -233 -98 -240 -4 -11 6 -13 52 -11 l57 3
18 45 18 45 103 3 104 3 21 -53 21 -52 59 3 c32 1 59 3 60 4 0 1 -44 109 -100
240 l-100 237 -61 0 -60 0 -94 -227z m188 24 c17 -43 31 -80 31 -82 0 -3 -30
-5 -66 -5 -59 0 -65 2 -60 18 27 71 60 152 62 150 1 -2 16 -38 33 -81z"/>
<path d="M9750 8910 l0 -241 143 3 c126 3 148 6 190 27 165 81 165 341 0 422
-42 21 -65 24 -190 27 l-143 4 0 -242z m277 126 c42 -21 67 -69 66 -127 -1
-95 -50 -139 -165 -147 l-68 -5 0 153 0 153 68 -5 c37 -3 82 -12 99 -22z"/>
<path d="M10300 8910 l0 -240 161 0 160 0 -3 48 -3 47 -107 3 -108 3 0 189 0
190 -50 0 -50 0 0 -240z"/>
<path d="M10680 8910 l0 -240 55 0 55 0 0 240 0 240 -55 0 -55 0 0 -240z"/>
<path d="M10887 9143 c-4 -3 -7 -111 -7 -240 l0 -233 56 0 55 0 -3 150 c-2 83
-1 150 2 150 3 0 50 -67 105 -149 l100 -149 58 -4 c32 -1 61 -1 63 1 2 2 4
112 4 243 l0 238 -55 0 -55 0 0 -162 0 -163 -108 162 -107 163 -51 0 c-28 0
-54 -3 -57 -7z"/>
<path d="M11410 8911 c0 -132 3 -241 8 -243 4 -2 82 -2 175 0 l167 3 0 44 0
45 -120 0 -120 0 0 55 0 55 105 0 105 0 0 45 0 45 -105 0 -105 0 0 50 0 50
120 0 120 0 0 45 0 45 -175 0 -175 0 0 -239z"/>
<path d="M5724 9065 c-3 -6 -3 -195 -2 -420 l3 -410 80 0 80 0 0 418 0 419
-79 1 c-45 1 -80 -2 -82 -8z"/>
<path d="M6357 9072 c-9 -2 -26 -31 -41 -70 -225 -594 -284 -757 -280 -764 3
-4 41 -8 84 -8 93 0 91 -2 135 123 l28 77 166 0 166 0 36 -98 36 -97 83 -3
c46 -2 87 1 91 5 4 4 -25 94 -65 198 -40 105 -107 283 -151 398 -43 114 -83
214 -89 222 -8 11 -34 16 -97 18 -47 1 -93 1 -102 -1z m146 -337 c25 -66 49
-128 52 -137 7 -17 -2 -18 -105 -18 -86 0 -111 3 -107 13 2 6 26 71 53 144 27
72 52 129 55 125 4 -4 27 -61 52 -127z"/>
<path d="M3199 9066 c-2 -2 -2 -190 1 -418 l5 -413 80 0 80 0 3 138 3 137 68
0 68 0 97 -140 97 -140 95 0 c65 0 94 4 94 12 0 6 -45 72 -101 146 -78 104
-98 137 -88 144 8 5 25 15 40 23 40 22 105 98 120 141 19 56 17 151 -4 206
-24 63 -102 133 -170 153 -38 11 -103 15 -267 15 -119 0 -219 -2 -221 -4z
m428 -157 c52 -25 73 -61 73 -124 0 -37 -6 -51 -32 -80 -39 -41 -94 -55 -219
-55 l-79 0 0 140 0 140 107 0 c88 0 114 -4 150 -21z"/>
<path d="M4032 8653 l3 -418 295 0 295 0 3 73 3 72 -211 0 -210 0 0 105 0 105
188 0 c104 0 191 2 193 4 2 2 2 34 1 70 l-4 66 -189 0 -189 0 0 100 0 100 205
0 c233 0 222 -5 210 85 l-6 55 -295 0 -294 0 2 -417z"/>
<path d="M4750 9067 c0 -3 133 -348 245 -637 37 -96 72 -181 78 -187 6 -9 40
-13 102 -13 62 0 96 4 103 13 5 6 78 190 162 407 83 217 154 401 157 408 4 9
-18 12 -90 12 -81 0 -96 -3 -102 -17 -4 -10 -50 -139 -102 -287 -111 -315
-128 -357 -137 -336 -17 44 -186 515 -205 573 l-23 67 -94 0 c-52 0 -94 -1
-94 -3z"/>
<path d="M2507 8759 c7 -7 15 -10 18 -7 3 3 -2 9 -12 12 -14 6 -15 5 -6 -5z"/>
<path d="M2185 8720 c-3 -5 1 -10 9 -10 9 0 16 5 16 10 0 6 -4 10 -9 10 -6 0
-13 -4 -16 -10z"/>
<path d="M2478 8713 c7 -3 16 -2 19 1 4 3 -2 6 -13 5 -11 0 -14 -3 -6 -6z"/>
<path d="M1990 8651 c0 -6 4 -13 10 -16 6 -3 7 1 4 9 -7 18 -14 21 -14 7z"/>
<path d="M9090 8104 l0 -65 -22 15 c-28 20 -90 20 -127 1 -78 -40 -82 -211 -7
-261 34 -21 98 -22 131 0 22 14 25 15 25 1 0 -8 9 -15 20 -15 19 0 20 7 20
195 0 188 -1 195 -20 195 -18 0 -20 -7 -20 -66z m-26 -95 c23 -18 26 -27 26
-83 0 -52 -4 -66 -22 -83 -53 -48 -120 -30 -138 36 -29 110 55 192 134 130z"/>
<path d="M8240 7970 l0 -190 78 0 c96 0 145 13 172 47 32 40 27 89 -13 127
l-34 32 22 16 c48 36 38 115 -16 143 -18 10 -59 15 -119 15 l-90 0 0 -190z
m192 133 c10 -9 18 -29 18 -44 0 -41 -32 -59 -107 -59 l-63 0 0 60 0 60 67 0
c48 0 72 -5 85 -17z m-15 -153 c38 -14 56 -50 43 -85 -12 -32 -46 -45 -121
-45 l-59 0 0 70 0 70 54 0 c29 0 67 -5 83 -10z"/>
<path d="M9680 8100 c0 -27 -3 -30 -30 -30 -23 0 -30 -4 -30 -20 0 -16 7 -20
30 -20 l30 0 0 -108 c0 -97 2 -111 20 -127 20 -18 82 -26 95 -13 13 13 -9 38
-35 38 -36 0 -40 12 -40 121 l0 89 40 0 c33 0 40 3 40 20 0 17 -7 20 -40 20
-38 0 -40 2 -40 30 0 23 -4 30 -20 30 -16 0 -20 -7 -20 -30z"/>
<path d="M10440 8100 c0 -25 -4 -30 -25 -30 -18 0 -25 -5 -25 -20 0 -15 7 -20
25 -20 25 0 25 0 25 -94 0 -110 10 -143 46 -156 34 -13 74 -3 74 20 0 14 -9
20 -32 22 l-33 3 -3 103 -3 102 36 0 c28 0 35 4 35 20 0 16 -7 20 -35 20 -32
0 -35 2 -35 30 0 25 -4 30 -25 30 -21 0 -25 -5 -25 -30z"/>
<path d="M13890 8108 c0 -2 -2 -69 -3 -151 -2 -134 0 -147 16 -147 15 0 17 14
17 150 0 127 -2 150 -15 150 -8 0 -15 -1 -15 -2z"/>
<path d="M14227 8103 c-3 -5 -4 -72 -4 -150 1 -131 3 -143 19 -143 17 0 18 12
18 150 0 124 -3 150 -14 150 -8 0 -17 -3 -19 -7z"/>
<path d="M12200 7955 c0 -122 2 -145 15 -145 13 0 15 23 15 145 0 122 -2 145
-15 145 -13 0 -15 -23 -15 -145z"/>
<path d="M13150 7955 c0 -138 1 -145 20 -145 18 0 20 7 20 60 0 59 1 60 28 60
22 0 34 -11 66 -60 25 -39 45 -60 57 -60 23 0 18 14 -33 88 -21 31 -25 42 -14
42 21 0 56 48 56 77 0 14 -13 37 -29 54 -27 27 -35 29 -100 29 l-71 0 0 -145z
m142 98 c43 -39 6 -93 -64 -93 l-38 0 0 55 0 55 42 0 c24 0 49 -7 60 -17z"/>
<path d="M12550 8055 c0 -18 -5 -25 -20 -25 -11 0 -20 -7 -20 -15 0 -8 9 -15
20 -15 18 0 20 -7 20 -83 0 -51 5 -88 12 -95 18 -18 78 -16 78 3 0 9 -9 15
-24 15 -30 0 -36 16 -36 96 l0 64 30 0 c20 0 30 5 30 15 0 10 -10 15 -30 15
-25 0 -30 4 -30 25 0 16 -6 25 -15 25 -9 0 -15 -9 -15 -25z"/>
<path d="M8628 8054 c-82 -44 -83 -208 -2 -261 36 -23 108 -21 142 4 35 25 62
79 62 123 0 47 -38 122 -70 137 -34 17 -99 16 -132 -3z m122 -42 c31 -25 40
-120 16 -157 -37 -56 -109 -53 -138 6 -26 50 -23 101 8 138 30 37 79 42 114
13z"/>
<path d="M9195 8053 c4 -10 30 -77 57 -149 l49 -131 -24 -52 -25 -51 29 0 c16
0 29 2 29 4 0 2 32 90 70 195 39 106 70 194 70 197 0 2 -10 4 -23 4 -19 0 -27
-14 -61 -116 -25 -74 -42 -111 -47 -102 -5 7 -25 59 -45 116 -33 92 -39 102
-61 102 -20 0 -24 -4 -18 -17z"/>
<path d="M9885 8048 c-54 -42 -71 -132 -37 -197 25 -51 62 -74 116 -73 53 1
77 14 100 54 17 28 17 28 -7 28 -14 0 -27 -7 -31 -15 -9 -24 -55 -37 -89 -25
-36 12 -56 37 -57 68 0 21 3 22 100 22 l100 0 0 30 c0 42 -23 94 -51 114 -35
24 -110 21 -144 -6z m125 -38 c11 -11 20 -29 20 -40 0 -18 -7 -20 -80 -20 -71
0 -79 2 -73 18 21 59 93 82 133 42z"/>
<path d="M10120 8062 c0 -4 20 -36 45 -71 l46 -62 -44 -62 c-62 -88 -62 -87
-34 -87 17 0 33 14 62 55 20 30 39 55 41 55 2 0 20 -25 40 -55 28 -41 43 -55
61 -55 28 0 28 -1 -34 87 l-43 62 45 64 c25 36 45 68 45 71 0 3 -10 6 -23 6
-17 0 -30 -13 -52 -50 -16 -27 -33 -50 -37 -50 -4 0 -23 22 -40 50 -23 35 -40
50 -55 50 -13 0 -23 -4 -23 -8z"/>
<path d="M12368 8026 c-16 -8 -28 -11 -28 -5 0 5 -9 9 -20 9 -19 0 -20 -7 -20
-110 0 -103 1 -110 20 -110 18 0 20 7 20 83 0 90 8 107 50 107 42 0 50 -17 50
-107 0 -78 1 -83 21 -83 15 0 19 4 15 16 -3 9 -6 50 -6 93 0 46 -5 84 -12 94
-19 24 -59 29 -90 13z"/>
<path d="M12721 8026 c-56 -31 -70 -132 -25 -185 22 -26 33 -31 70 -31 36 0
51 6 72 27 24 24 25 28 9 31 -10 2 -26 -3 -36 -12 -35 -32 -92 -15 -106 32 -6
22 -5 22 74 22 80 0 81 0 81 25 0 41 -27 82 -61 94 -40 14 -48 13 -78 -3z m77
-32 c12 -8 22 -24 22 -35 0 -17 -7 -19 -60 -19 -66 0 -73 8 -35 45 28 29 42
31 73 9z"/>
<path d="M12978 8026 c-16 -8 -28 -11 -28 -5 0 5 -9 9 -20 9 -19 0 -20 -7 -20
-110 0 -103 1 -110 20 -110 18 0 20 7 20 86 l0 86 30 11 c18 7 30 19 30 29 0
22 2 21 -32 4z"/>
<path d="M13455 8026 c-60 -26 -76 -130 -29 -185 34 -40 98 -44 132 -8 12 13
22 26 22 30 0 13 -27 7 -40 -8 -19 -23 -76 -19 -94 7 -30 42 -22 48 64 48 71
0 80 2 80 19 0 43 -23 83 -56 97 -40 17 -41 17 -79 0z m83 -44 c25 -32 15 -42
-48 -42 -64 0 -66 1 -49 31 20 38 70 43 97 11z"/>
<path d="M13684 8030 c-36 -15 -54 -50 -54 -108 0 -70 29 -102 93 -102 23 0
49 6 56 13 11 10 12 7 7 -18 -13 -59 -63 -77 -107 -39 -21 18 -39 18 -39 -1 0
-8 15 -24 33 -36 42 -26 94 -19 125 16 20 24 22 36 22 150 l0 124 -27 -1 c-16
0 -41 2 -58 5 -16 4 -40 2 -51 -3z m88 -47 c23 -21 24 -89 1 -115 -20 -23 -76
-24 -94 -1 -22 25 -18 102 5 119 26 19 65 18 88 -3z"/>
<path d="M14368 8029 c-26 -10 -44 -36 -33 -47 3 -3 19 2 34 11 36 21 55 21
75 1 29 -28 19 -42 -36 -49 -84 -12 -123 -70 -78 -115 25 -25 86 -27 112 -3
17 15 18 15 18 0 0 -10 7 -17 15 -17 12 0 15 17 15 93 0 98 -3 108 -37 126
-26 13 -48 13 -85 0z m92 -131 c0 -33 -29 -58 -67 -58 -56 0 -58 56 -2 71 49
14 69 10 69 -13z"/>
<path d="M14630 8033 c-8 -3 -21 -12 -27 -21 -12 -14 -13 -14 -13 1 0 9 -7 17
-15 17 -12 0 -15 -19 -15 -110 0 -90 3 -110 15 -110 11 0 15 18 17 83 3 82 3
82 35 97 42 19 45 56 3 43z"/>
<path d="M13986 7940 c1 -72 5 -94 19 -110 20 -22 65 -26 96 -10 13 7 19 7 19
0 0 -5 9 -10 20 -10 19 0 20 7 20 110 0 103 -1 110 -20 110 -18 0 -20 -7 -20
-83 0 -91 -8 -107 -52 -107 -38 0 -48 24 -48 114 0 66 -2 76 -17 76 -16 0 -18
-11 -17 -90z"/>
<path d="M1040 7390 c0 -40 4 -70 10 -70 6 0 10 11 10 25 0 20 5 25 24 25 45
0 72 50 44 78 -7 7 -29 12 -50 12 l-38 0 0 -70z m75 40 c9 -15 -14 -40 -36
-40 -14 0 -19 7 -19 25 0 20 5 25 24 25 14 0 28 -5 31 -10z"/>
<path d="M1170 7390 c0 -56 3 -70 15 -70 10 0 15 10 15 30 0 17 4 30 10 30 5
0 16 -13 25 -30 9 -16 23 -30 31 -30 15 0 15 3 -1 26 -12 19 -14 29 -6 37 17
17 13 64 -5 71 -9 3 -31 6 -50 6 l-34 0 0 -70z m78 29 c2 -11 -6 -18 -23 -21
-21 -4 -25 -2 -25 19 0 20 4 24 22 21 13 -2 24 -10 26 -19z"/>
<path d="M1310 7390 c0 -49 4 -70 13 -70 8 0 12 21 12 70 0 49 -4 70 -12 70
-9 0 -13 -21 -13 -70z"/>
<path d="M1380 7390 c0 -40 4 -70 10 -70 6 0 10 21 10 48 l1 47 20 -37 c24
-46 33 -47 49 -8 20 49 33 47 29 -4 -3 -32 0 -46 8 -46 9 0 13 20 13 70 0 82
-16 93 -46 30 -10 -22 -22 -40 -25 -40 -3 0 -14 18 -24 40 -29 63 -45 52 -45
-30z"/>
<path d="M1593 7443 c-3 -10 -15 -40 -25 -67 -10 -27 -17 -51 -14 -53 8 -8 26
7 26 23 0 23 61 18 67 -6 3 -11 12 -20 20 -20 10 0 13 6 8 18 -4 9 -16 41 -27
70 -20 53 -43 67 -55 35z m37 -50 c0 -7 -9 -13 -20 -13 -17 0 -18 3 -8 25 8
19 14 22 20 13 4 -7 8 -19 8 -25z"/>
<path d="M1710 7390 c0 -40 4 -70 10 -70 6 0 10 14 10 30 0 38 16 38 38 0 23
-40 49 -42 28 -2 -13 26 -13 31 1 45 14 13 14 21 5 42 -10 21 -18 25 -52 25
l-40 0 0 -70z m70 30 c0 -15 -7 -20 -25 -20 -18 0 -25 5 -25 20 0 15 7 20 25
20 18 0 25 -5 25 -20z"/>
<path d="M1854 7414 c14 -26 26 -57 26 -70 0 -13 5 -24 10 -24 6 0 10 12 10
28 0 15 11 46 25 70 19 34 21 42 9 42 -9 0 -21 -13 -27 -30 -6 -16 -14 -30
-18 -30 -4 0 -12 14 -19 30 -7 17 -19 30 -27 30 -11 0 -9 -11 11 -46z"/>
<path d="M2406 7444 c-21 -21 -6 -49 34 -62 16 -6 30 -16 30 -22 0 -17 -31
-24 -50 -12 -22 13 -34 4 -19 -15 14 -16 61 -17 77 -1 24 24 14 56 -23 69 -42
16 -40 35 4 31 32 -2 42 11 15 22 -27 10 -52 7 -68 -10z"/>
<path d="M2530 7390 l0 -70 45 0 c25 0 45 5 45 10 0 6 -16 10 -35 10 -28 0
-35 4 -35 20 0 16 7 20 30 20 20 0 30 5 30 15 0 9 -9 13 -27 12 -19 -1 -29 3
-31 16 -3 14 4 17 32 17 20 0 36 5 36 10 0 6 -20 10 -45 10 l-45 0 0 -70z"/>
<path d="M2671 7441 c-54 -54 2 -142 73 -115 30 12 16 25 -19 18 -30 -5 -36
-3 -46 20 -10 20 -10 32 0 52 10 23 15 25 47 19 28 -5 35 -3 32 7 -8 22 -64
22 -87 -1z"/>
<path d="M2806 7438 c-51 -72 35 -159 94 -96 11 12 20 34 20 50 0 60 -82 93
-114 46z m72 -10 c7 -7 12 -24 12 -38 0 -51 -52 -69 -72 -25 -22 49 25 98 60
63z"/>
<path d="M2960 7390 c0 -78 17 -96 22 -22 l3 47 30 -47 c43 -68 55 -63 55 22
0 78 -17 96 -22 23 l-3 -48 -33 48 c-18 26 -37 47 -42 47 -6 0 -10 -31 -10
-70z"/>
<path d="M3110 7390 l0 -70 35 0 c25 0 44 8 60 25 30 30 31 54 4 89 -16 20
-29 26 -60 26 l-39 0 0 -70z m78 38 c19 -19 15 -66 -7 -78 -41 -21 -51 -13
-51 40 0 46 2 50 23 50 13 0 28 -5 35 -12z"/>
<path d="M3289 7433 c-27 -69 -39 -106 -35 -111 8 -7 26 9 26 24 0 23 61 18
67 -6 3 -11 11 -20 19 -20 10 0 7 16 -11 65 -14 36 -25 68 -25 70 0 3 -7 5
-15 5 -9 0 -20 -12 -26 -27z m37 -50 c-2 -3 -11 -3 -19 -1 -11 2 -12 9 -5 28
l10 25 9 -24 c5 -13 7 -26 5 -28z"/>
<path d="M3408 7390 c2 -38 8 -70 13 -70 5 0 9 14 9 30 0 38 16 38 38 0 22
-39 49 -42 28 -3 -12 24 -12 30 1 49 24 37 2 64 -50 64 l-42 0 3 -70z m70 28
c3 -13 -3 -18 -22 -18 -20 0 -26 5 -26 21 0 15 5 20 22 17 13 -2 24 -11 26
-20z"/>
<path d="M3554 7414 c14 -26 26 -57 26 -70 0 -13 5 -24 10 -24 6 0 10 12 10
26 0 14 12 45 26 70 20 34 23 44 11 44 -9 0 -21 -13 -29 -30 -7 -16 -15 -30
-18 -30 -3 0 -11 14 -17 30 -6 17 -19 30 -28 30 -14 0 -13 -7 9 -46z"/>
<path d="M4129 7433 c-27 -69 -39 -106 -35 -111 8 -7 26 9 26 24 0 23 61 18
67 -6 3 -11 12 -20 19 -20 11 0 8 15 -11 66 -14 37 -25 68 -25 70 0 2 -7 4
-15 4 -9 0 -20 -12 -26 -27z m37 -50 c-2 -3 -11 -3 -19 -1 -11 2 -12 9 -5 28
l10 25 9 -24 c5 -13 7 -26 5 -28z"/>
<path d="M4257 7442 c-23 -25 -22 -85 1 -105 19 -18 48 -22 76 -11 29 11 17
26 -14 19 -38 -8 -60 8 -60 45 0 37 22 53 60 45 31 -7 43 8 14 19 -29 11 -61
6 -77 -12z"/>
<path d="M4396 7438 c-44 -62 9 -138 78 -112 28 11 17 26 -13 19 -20 -4 -34
-1 -45 10 -37 37 -5 91 46 79 23 -5 29 -3 26 7 -3 8 -21 15 -40 17 -28 2 -40
-2 -52 -20z"/>
<path d="M4520 7390 l0 -70 45 0 c25 0 45 5 45 10 0 6 -16 10 -35 10 -28 0
-35 4 -35 20 0 16 7 20 31 20 20 0 29 4 27 12 -3 7 -15 13 -29 13 -14 0 -25 7
-27 18 -3 14 4 17 32 17 20 0 36 5 36 10 0 6 -20 10 -45 10 l-45 0 0 -70z"/>
<path d="M4650 7390 c0 -40 4 -70 10 -70 6 0 10 20 10 45 0 25 3 45 8 45 4 0
19 -21 34 -45 15 -25 32 -45 38 -45 6 0 10 28 10 70 0 40 -4 70 -10 70 -5 0
-10 -21 -10 -47 l0 -47 -32 47 c-46 66 -58 62 -58 -23z"/>
<path d="M4790 7450 c0 -5 10 -10 23 -10 21 0 22 -3 19 -60 -3 -50 -1 -60 12
-60 13 0 16 12 16 60 0 53 2 60 20 60 11 0 20 5 20 10 0 6 -25 10 -55 10 -30
0 -55 -4 -55 -10z"/>
<path d="M5260 7390 l0 -70 45 0 c25 0 45 5 45 10 0 6 -16 10 -35 10 -28 0
-35 4 -35 20 0 16 7 20 30 20 19 0 30 5 30 14 0 10 -9 14 -27 13 -19 -1 -28 3
-31 16 -3 14 4 17 32 17 20 0 36 5 36 10 0 6 -20 10 -45 10 l-45 0 0 -70z"/>
<path d="M5390 7390 c0 -40 4 -70 10 -70 6 0 10 11 10 25 0 16 6 25 15 25 9 0
21 -11 27 -25 6 -14 18 -25 26 -25 12 0 11 4 -3 26 -15 23 -15 27 -1 43 34 37
12 71 -46 71 l-38 0 0 -70z m70 30 c0 -11 -4 -20 -9 -20 -5 0 -16 -3 -25 -6
-12 -5 -16 0 -16 20 0 21 5 26 25 26 18 0 25 -5 25 -20z"/>
<path d="M5520 7390 c0 -56 3 -70 15 -70 10 0 15 10 15 30 0 35 21 32 38 -6 7
-13 19 -24 27 -24 14 0 13 3 -1 26 -13 19 -14 28 -5 37 14 14 14 50 -1 65 -7
7 -29 12 -50 12 l-38 0 0 -70z m77 35 c7 -19 2 -24 -26 -30 -17 -3 -21 1 -21
21 0 17 5 24 20 24 11 0 23 -7 27 -15z"/>
<path d="M5677 7442 c-23 -25 -22 -85 2 -106 43 -39 121 11 107 67 -13 55 -75
77 -109 39z m72 -16 c31 -37 -9 -103 -46 -80 -37 23 -24 94 17 94 10 0 23 -6
29 -14z"/>
<path d="M5820 7390 c0 -40 4 -70 10 -70 6 0 10 11 10 23 0 39 13 40 41 5 31
-37 51 -32 26 6 -14 21 -14 25 -2 30 18 7 20 47 3 64 -7 7 -29 12 -50 12 l-38
0 0 -70z m76 39 c9 -16 -21 -43 -40 -36 -9 4 -16 16 -16 27 0 15 7 20 24 20
14 0 28 -5 32 -11z"/>
<path d="M6220 7458 c6 -41 40 -133 50 -133 7 0 20 23 28 50 l15 50 15 -52 c8
-29 20 -53 27 -53 12 0 51 128 41 137 -10 10 -26 -9 -27 -30 0 -12 -4 -31 -9
-42 -6 -17 -10 -12 -20 28 -16 60 -36 61 -52 3 -14 -53 -24 -51 -33 4 -4 25
-12 40 -21 40 -8 0 -14 -1 -14 -2z"/>
<path d="M6442 7398 c-12 -35 -22 -66 -22 -70 0 -16 19 -7 25 12 4 14 15 20
35 20 20 0 31 -6 35 -20 3 -11 12 -20 19 -20 10 0 6 19 -13 70 -33 89 -49 90
-79 8z m48 23 c0 -5 3 -16 6 -25 4 -12 0 -16 -16 -16 -16 0 -20 4 -16 16 3 9
6 20 6 25 0 5 5 9 10 9 6 0 10 -4 10 -9z"/>
<path d="M6570 7390 c0 -40 4 -70 10 -70 6 0 10 11 10 23 0 39 13 40 41 5 31
-37 51 -32 25 7 -9 14 -12 25 -6 25 16 0 24 49 10 65 -7 9 -29 15 -51 15 l-39
0 0 -70z m74 35 c4 -10 -2 -19 -17 -24 -27 -11 -37 -5 -37 20 0 24 45 27 54 4z"/>
<path d="M6710 7390 c0 -78 17 -96 22 -22 l3 47 33 -47 c18 -27 37 -48 42 -48
6 0 10 32 10 70 0 78 -17 96 -22 23 l-3 -48 -30 47 c-43 68 -55 63 -55 -22z"/>
<path d="M6860 7390 c0 -56 3 -70 15 -70 12 0 15 14 15 70 0 56 -3 70 -15 70
-12 0 -15 -14 -15 -70z"/>
<path d="M6930 7390 c0 -78 17 -96 22 -22 l3 47 33 -47 c18 -27 37 -48 42 -48
6 0 10 32 10 70 0 78 -17 96 -22 23 l-3 -48 -30 47 c-43 68 -55 63 -55 -22z"/>
<path d="M7100 7440 c-40 -40 -12 -120 41 -120 37 0 59 19 59 50 0 25 -4 30
-25 30 -29 0 -32 -8 -7 -26 24 -17 2 -39 -31 -30 -43 10 -44 81 -1 92 12 3 28
3 33 -1 6 -3 16 -3 22 1 8 4 7 9 -2 15 -24 15 -68 10 -89 -11z"/>
<path d="M8269 7192 c-40 -36 -51 -110 -24 -161 20 -39 71 -63 115 -55 31 7
73 49 67 68 -7 20 -24 16 -35 -8 -12 -28 -49 -42 -81 -31 -50 16 -66 121 -25
166 30 33 114 17 114 -22 0 -5 7 -9 15 -9 23 0 18 28 -10 55 -35 36 -94 34
-136 -3z"/>
<path d="M8522 7168 c-12 -29 -32 -83 -46 -120 -24 -64 -24 -68 -6 -68 12 0
21 10 25 30 6 29 8 30 65 30 57 0 59 -1 65 -30 4 -20 13 -30 25 -30 18 0 18 4
-6 68 -14 37 -35 91 -46 120 -14 36 -25 52 -38 52 -12 0 -24 -16 -38 -52z m57
-29 c7 -23 15 -47 18 -55 4 -11 -5 -14 -37 -14 -32 0 -41 3 -37 14 3 8 11 32
18 55 7 23 15 41 19 41 4 0 12 -18 19 -41z"/>
<path d="M8701 7100 c2 -109 4 -120 21 -120 15 0 18 8 18 45 l0 45 43 0 c60 0
87 22 87 70 0 56 -34 80 -112 80 l-59 0 2 -120z m132 69 c5 -9 7 -28 3 -42 -6
-24 -11 -27 -50 -27 l-44 0 -4 45 -3 46 44 -3 c27 -2 48 -9 54 -19z"/>
<path d="M8900 7205 c0 -10 11 -15 35 -15 l35 0 0 -105 c0 -93 2 -105 18 -105
15 0 17 10 14 105 l-3 105 40 0 c30 0 41 4 41 15 0 12 -17 15 -90 15 -73 0
-90 -3 -90 -15z"/>
<path d="M9120 7100 c0 -100 3 -120 15 -120 13 0 15 20 15 120 0 100 -2 120
-15 120 -12 0 -15 -20 -15 -120z"/>
<path d="M9247 7199 c-35 -27 -51 -87 -37 -137 35 -134 210 -106 210 33 0 49
-25 100 -56 114 -38 17 -89 13 -117 -10z m119 -30 c13 -15 19 -36 19 -71 0
-42 -4 -53 -28 -74 -36 -31 -62 -30 -92 1 -33 32 -36 114 -5 145 27 27 81 26
106 -1z"/>
<path d="M9470 7101 c0 -101 2 -121 15 -121 12 0 15 17 15 92 l0 92 63 -92
c87 -128 97 -125 97 28 0 99 -3 120 -15 120 -11 0 -15 -19 -17 -91 l-3 -90
-61 88 c-86 126 -94 124 -94 -26z"/>
<path d="M12576 7213 c-3 -3 -6 -57 -6 -119 l0 -112 38 -1 c69 -3 75 -2 96 19
28 28 29 99 1 130 -16 18 -28 21 -62 17 -43 -5 -43 -4 -43 29 0 32 -11 50 -24
37z m106 -100 c37 -34 12 -113 -37 -113 -32 0 -45 19 -45 67 0 58 42 83 82 46z"/>
<path d="M12190 7096 c0 -96 3 -116 15 -116 11 0 15 12 15 45 0 39 3 45 20 45
14 0 30 -15 48 -45 15 -25 34 -45 44 -45 16 0 15 3 -3 35 -12 19 -25 38 -30
41 -14 8 -11 24 6 24 18 0 35 31 35 63 0 37 -33 60 -95 65 l-55 4 0 -116z
m110 70 c6 -8 10 -25 8 -38 -2 -19 -10 -23 -45 -26 l-43 -3 0 40 c0 40 1 41
34 41 18 0 39 -7 46 -14z"/>
<path d="M13340 7095 c0 -94 3 -115 15 -115 11 0 15 18 17 82 l3 81 30 -78
c26 -69 46 -97 61 -83 2 3 20 43 39 89 l35 84 0 -87 c0 -72 3 -88 15 -88 12 0
15 19 15 115 0 105 -2 115 -19 115 -14 0 -27 -22 -56 -91 -20 -50 -41 -87 -45
-82 -4 4 -22 45 -40 91 -25 60 -38 82 -52 82 -16 0 -18 -11 -18 -115z"/>
<path d="M13920 7176 c0 -33 -1 -34 -28 -27 -57 17 -95 -20 -94 -92 1 -47 27
-79 63 -78 13 0 39 1 57 1 l32 1 0 115 c0 95 -3 114 -15 114 -10 0 -15 -10
-15 -34z m-19 -56 c14 -8 19 -21 19 -53 0 -48 -13 -67 -46 -67 -26 0 -54 34
-54 65 0 27 27 65 46 65 9 0 24 -5 35 -10z"/>
<path d="M13997 7204 c-9 -10 2 -24 19 -24 8 0 14 7 14 15 0 15 -21 21 -33 9z"/>
<path d="M12960 7175 c0 -16 -6 -25 -15 -25 -8 0 -15 -4 -15 -10 0 -5 7 -10
15 -10 12 0 15 -14 15 -65 0 -57 3 -66 24 -81 18 -11 30 -13 43 -6 16 10 15
12 -9 21 -26 10 -28 14 -28 71 0 53 2 60 20 60 11 0 20 5 20 10 0 6 -9 10 -20
10 -15 0 -20 7 -20 25 0 16 -6 25 -15 25 -9 0 -15 -9 -15 -25z"/>
<path d="M12430 7150 c-50 -12 -72 -104 -37 -149 29 -35 94 -32 123 7 16 20
18 86 4 112 -12 23 -58 38 -90 30z m58 -32 c7 -7 12 -30 12 -53 0 -46 -13 -65
-46 -65 -26 0 -54 34 -54 65 0 50 57 84 88 53z"/>
<path d="M13665 7150 c-33 -13 -48 -37 -48 -78 0 -48 17 -80 48 -92 29 -11 81
4 89 27 9 24 -2 28 -22 10 -24 -22 -55 -21 -75 1 -31 34 -21 42 49 42 l66 0
-7 28 c-12 49 -59 79 -100 62z m59 -36 c26 -26 18 -34 -34 -34 -54 0 -59 4
-33 32 20 22 46 23 67 2z"/>
<path d="M12776 7128 c-9 -12 -16 -41 -16 -63 0 -60 22 -85 75 -85 53 0 75 25
75 85 0 60 -22 85 -75 85 -34 0 -47 -5 -59 -22z m95 -14 c16 -19 15 -79 -1
-99 -16 -20 -54 -19 -71 1 -7 9 -13 31 -13 49 0 18 6 40 13 49 17 21 55 21 72
0z"/>
<path d="M13081 7124 c-65 -82 39 -198 112 -125 29 28 30 100 3 130 -29 32
-88 29 -115 -5z m93 -16 c9 -12 16 -32 16 -43 0 -54 -67 -88 -90 -46 -37 70
31 151 74 89z"/>
<path d="M14000 7065 c0 -69 3 -85 15 -85 12 0 15 16 15 85 0 69 -3 85 -15 85
-12 0 -15 -16 -15 -85z"/>
<path d="M14077 7078 c1 -62 5 -76 24 -91 14 -11 29 -15 43 -10 12 3 31 6 44
5 21 -2 22 1 22 83 0 68 -3 85 -15 85 -11 0 -15 -16 -17 -66 -3 -74 -21 -99
-55 -78 -14 8 -19 27 -21 78 -2 43 -7 66 -15 66 -8 0 -11 -22 -10 -72z"/>
<path d="M14260 7065 c0 -68 3 -85 15 -85 11 0 15 16 17 66 3 70 18 94 52 81
13 -5 16 -21 16 -77 0 -56 3 -70 15 -70 12 0 15 14 15 64 0 69 14 92 50 81 18
-6 20 -15 20 -76 0 -55 3 -69 15 -69 12 0 15 14 15 66 0 83 -11 104 -53 104
-18 0 -38 -5 -44 -11 -8 -8 -13 -8 -17 0 -9 15 -59 14 -74 -1 -9 -9 -12 -9
-12 0 0 7 -7 12 -15 12 -12 0 -15 -16 -15 -85z"/>
<path d="M970 7117 c-46 -23 -50 -45 -50 -299 0 -130 4 -248 10 -262 21 -57
23 -57 580 -54 l510 3 27 28 28 27 0 255 0 255 -28 27 -27 28 -513 2 c-398 2
-518 0 -537 -10z"/>
<path d="M2311 7116 c-47 -26 -50 -45 -51 -299 0 -265 4 -286 61 -306 22 -8
240 -11 711 -11 724 0 731 0 757 48 7 13 11 111 11 272 l0 252 -29 29 -29 29
-704 0 c-564 -1 -708 -3 -727 -14z"/>
<path d="M5244 7120 c-51 -21 -54 -37 -54 -298 0 -270 4 -291 61 -311 21 -7
142 -11 346 -11 334 0 358 3 383 49 6 12 10 117 10 270 0 250 0 250 -24 278
l-24 28 -339 2 c-186 1 -348 -2 -359 -7z"/>
<path d="M6211 7104 l-31 -26 0 -260 0 -260 30 -29 29 -30 480 3 481 3 27 28
28 27 3 233 c2 150 -1 245 -8 269 -20 69 -12 68 -539 68 l-469 0 -31 -26z"/>
<path d="M11574 6080 c-52 -21 -54 -35 -54 -318 l0 -264 30 -29 29 -30 267 3
266 3 24 28 24 28 0 264 0 264 -24 28 -24 28 -259 2 c-142 1 -268 -2 -279 -7z"/>
<path d="M12359 6075 c-15 -8 -30 -22 -35 -32 -4 -10 -10 -129 -12 -265 -4
-278 1 -307 60 -327 44 -15 502 -15 531 1 46 24 46 30 47 315 l0 271 -31 26
-31 26 -251 0 c-199 -1 -258 -4 -278 -15z"/>
<path d="M13148 6073 c-15 -10 -32 -31 -38 -47 -14 -40 -13 -484 1 -525 20
-57 40 -61 318 -61 l249 0 31 26 31 26 0 273 0 273 -31 26 -31 26 -251 0
c-219 0 -256 -3 -279 -17z"/>
<path d="M1285 5910 c-119 -38 -218 -134 -262 -255 -17 -48 -18 -151 -21
-2375 -1 -1534 1 -2343 8 -2380 33 -180 174 -321 351 -349 90 -15 2004 -15
2085 0 165 30 280 135 328 300 15 50 16 276 14 2410 l-3 2355 -38 76 c-60 122
-158 200 -285 227 -37 8 -356 11 -1085 10 -988 0 -1035 -1 -1092 -19z m392
-80 c4 -12 3 -12 -5 -2 -7 11 -45 13 -173 10 -152 -3 -168 -5 -219 -29 -112
-52 -169 -131 -189 -260 l-10 -64 4 61 c10 139 97 245 238 290 62 19 349 15
354 -6z m1761 12 c13 -4 -55 -5 -152 -4 l-175 4 -6 -39 c-3 -21 -8 -49 -11
-62 -6 -28 -75 -101 -95 -101 -8 0 1 9 19 20 41 25 72 76 72 118 0 71 3 72
173 71 84 -1 162 -4 175 -7z m108 -41 c63 -36 109 -88 143 -161 l26 -55 3
-2323 c1 -1278 -1 -2337 -5 -2353 -5 -16 -8 1030 -8 2323 l0 2353 -23 49 c-35
77 -85 131 -154 165 -33 17 -55 31 -47 31 8 0 37 -13 65 -29z m-1852 -31 c4
-25 3 -31 -4 -20 -5 8 -10 26 -10 39 0 32 6 24 14 -19z m80 -111 c17 -10 26
-19 19 -19 -16 0 -72 48 -84 74 -6 13 -2 10 12 -8 12 -15 36 -37 53 -47z m69
-26 c-7 -2 -19 -2 -25 0 -7 3 -2 5 12 5 14 0 19 -2 13 -5z m1125 0 c-10 -2
-28 -2 -40 0 -13 2 -5 4 17 4 22 1 32 -1 23 -4z m-991 -9 c-3 -3 -12 -4 -19
-1 -8 3 -5 6 6 6 11 1 17 -2 13 -5z m720 0 c-3 -3 -12 -4 -19 -1 -8 3 -5 6 6
6 11 1 17 -2 13 -5z m-1620 -3477 c-1 -606 -2 -110 -2 1103 0 1213 1 1709 2
1102 2 -606 2 -1598 0 -2205z m1714 1770 c82 -43 123 -135 105 -232 -10 -49
-71 -114 -162 -172 -41 -26 -74 -50 -74 -54 0 -5 34 -50 75 -101 77 -96 85
-112 61 -121 -18 -7 -221 4 -233 12 -25 18 -173 223 -173 240 0 25 58 73 128
106 112 53 152 83 152 113 0 23 -2 24 -45 20 -53 -6 -189 -69 -274 -127 -96
-66 -191 -152 -290 -265 -51 -59 -96 -104 -100 -101 -9 5 75 340 134 540 22
71 47 137 57 147 16 16 43 18 306 18 283 0 290 0 333 -23z m-908 -901 c48 -20
69 -50 75 -106 4 -46 2 -52 -29 -83 l-34 -34 37 -59 c20 -33 37 -62 37 -66 1
-5 -16 -8 -38 -8 -36 0 -41 4 -77 60 -36 56 -41 60 -76 60 l-38 0 0 -61 0 -60
-37 3 -38 3 -3 170 c-1 93 0 175 2 182 7 18 176 18 219 -1z m415 -23 l3 -33
-95 0 -96 0 0 -40 0 -40 75 0 75 0 0 -35 0 -35 -75 0 -75 0 0 -40 0 -40 95 0
95 0 0 -35 0 -36 -132 3 -133 3 -3 174 c-2 133 1 176 10 183 7 4 67 7 133 6
l120 -3 3 -32z m125 16 c4 -8 27 -71 50 -141 l43 -127 43 132 c24 73 47 137
52 143 4 5 24 8 44 6 42 -5 45 10 -31 -187 -29 -77 -56 -148 -60 -157 -4 -13
-17 -18 -49 -18 l-43 0 -30 78 c-17 42 -48 123 -70 179 -22 56 -38 104 -36
106 10 9 79 -2 87 -14z m397 -170 l0 -179 -35 0 -35 0 0 179 0 180 28 3 c15 2
30 2 35 0 4 -2 7 -84 7 -183z m347 6 c40 -98 73 -181 73 -182 0 -2 -18 -3 -41
-3 -36 0 -41 3 -54 34 -15 34 -15 34 -89 38 l-75 3 -12 -37 c-11 -35 -15 -38
-51 -38 -21 0 -38 1 -38 3 0 5 103 260 129 320 19 45 23 48 53 45 32 -3 33 -5
105 -183z m-2041 -2020 c29 -62 97 -129 160 -156 82 -37 191 -40 1195 -37 536
2 952 0 924 -4 -81 -10 -1900 -9 -1994 2 -190 22 -313 140 -326 312 l-4 63 10
-64 c5 -35 21 -87 35 -116z m2558 -7 c-28 -54 -65 -98 -110 -129 -60 -41 -65
-36 -9 7 64 49 91 81 112 133 9 24 19 39 21 33 2 -6 -4 -26 -14 -44z m-184
-168 c-8 -5 -22 -9 -30 -9 -10 0 -8 3 5 9 27 12 43 12 25 0z"/>
<path d="M1740 2905 l0 -55 58 0 c64 0 82 11 82 51 0 37 -19 49 -84 54 l-56 4
0 -54z"/>
<path d="M3036 2881 c-10 -31 -20 -61 -22 -67 -3 -8 11 -11 41 -10 24 0 45 3
45 6 0 3 -10 33 -23 66 l-22 62 -19 -57z"/>
<path d="M4818 5911 c-71 -23 -112 -49 -165 -103 -50 -52 -90 -128 -103 -199
-15 -77 -14 -4671 1 -4741 14 -66 57 -151 102 -204 42 -48 131 -98 205 -113
70 -15 2085 -16 2162 -1 165 31 288 156 319 325 8 41 11 745 11 2364 0 2467 1
2381 -48 2477 -37 72 -99 131 -180 171 l-76 38 -1085 2 c-1026 2 -1089 1
-1143 -16z m2067 -50 c126 -7 146 -11 198 -36 73 -36 138 -107 169 -183 l23
-57 3 -2305 c2 -1627 -1 -2324 -8 -2369 -20 -118 -90 -214 -190 -264 l-45 -22
-1073 -3 c-715 -1 -1086 1 -1112 8 -59 16 -131 71 -172 131 -73 106 -68 -84
-68 2485 0 2287 0 2313 20 2375 44 140 150 223 304 239 94 10 1772 11 1951 1z"/>
<path d="M6770 5670 c0 -29 4 -40 15 -40 11 0 15 11 15 40 0 29 -4 40 -15 40
-11 0 -15 -11 -15 -40z"/>
<path d="M4860 5679 c0 -12 8 -23 20 -26 11 -3 20 -10 20 -15 0 -6 -9 -8 -20
-5 -11 3 -20 1 -20 -4 0 -5 11 -9 25 -9 18 0 26 7 31 25 9 36 -2 55 -31 55
-19 0 -25 -5 -25 -21z m40 -5 c0 -9 -5 -14 -12 -12 -18 6 -21 28 -4 28 9 0 16
-7 16 -16z"/>
<path d="M4976 5675 c-21 -31 -20 -35 4 -35 11 0 20 -4 20 -10 0 -5 5 -10 10
-10 6 0 10 18 10 40 0 47 -19 53 -44 15z m20 -22 c-10 -10 -19 5 -10 18 6 11
8 11 12 0 2 -7 1 -15 -2 -18z"/>
<path d="M5035 5690 c-3 -5 0 -10 8 -10 9 0 12 -9 9 -30 -3 -18 0 -30 7 -30 6
0 11 17 11 40 0 28 -4 40 -14 40 -8 0 -18 -4 -21 -10z"/>
<path d="M6890 5665 l0 -36 88 3 87 3 3 33 3 32 -90 0 -91 0 0 -35z"/>
<path d="M6727 5683 c-13 -13 -7 -53 8 -53 10 0 15 10 15 30 0 29 -9 38 -23
23z"/>
<path d="M4930 5670 c0 -5 5 -10 10 -10 6 0 10 5 10 10 0 6 -4 10 -10 10 -5 0
-10 -4 -10 -10z"/>
<path d="M6680 5650 c0 -11 7 -20 15 -20 8 0 15 9 15 20 0 11 -7 20 -15 20 -8
0 -15 -9 -15 -20z"/>
<path d="M4935 5630 c-3 -5 -1 -10 4 -10 6 0 11 5 11 10 0 6 -2 10 -4 10 -3 0
-8 -4 -11 -10z"/>
<path d="M5150 5245 c0 -78 3 -95 15 -95 12 0 15 17 15 95 0 78 -3 95 -15 95
-12 0 -15 -17 -15 -95z"/>
<path d="M5219 5338 c0 -2 -1 -43 -1 -93 -1 -76 1 -90 15 -93 15 -3 17 8 17
92 0 79 -3 96 -15 96 -8 0 -15 -1 -16 -2z"/>
<path d="M4825 5243 c1 -74 4 -88 18 -91 14 -3 17 4 17 37 l0 41 40 0 40 0 0
-40 c0 -29 4 -40 15 -40 12 0 15 17 15 90 0 73 -3 90 -15 90 -10 0 -15 -11
-15 -35 0 -34 -1 -35 -40 -35 -39 0 -40 1 -40 35 0 27 -4 35 -18 35 -17 0 -18
-9 -17 -87z"/>
<path d="M5040 5283 c-42 -15 -54 -79 -20 -113 26 -26 62 -26 85 0 19 21 19
21 -25 18 -27 -2 -44 1 -47 10 -3 8 9 12 41 12 38 0 46 3 46 18 0 37 -44 67
-80 55z m48 -40 c2 -9 -7 -13 -27 -13 -30 0 -39 9 -24 24 11 10 46 3 51 -11z"/>
<path d="M5310 5277 c-34 -17 -40 -77 -11 -106 42 -42 101 -14 101 48 0 55
-42 82 -90 58z m55 -57 c0 -31 -3 -35 -25 -35 -29 0 -40 36 -19 61 21 26 44
12 44 -26z"/>
<path d="M5435 5178 c-2 -7 -5 -25 -8 -40 -7 -44 19 -34 31 12 8 33 7 40 -4
40 -8 0 -16 -6 -19 -12z"/>
<path d="M5496 4961 c-11 -18 6 -42 28 -39 29 4 29 42 -1 46 -11 2 -24 -1 -27
-7z"/>
<path d="M5800 4840 c0 -123 1 -130 20 -130 19 0 20 7 20 130 0 123 -1 130
-20 130 -19 0 -20 -7 -20 -130z"/>
<path d="M4830 4836 l0 -126 64 0 c36 0 76 4 90 10 71 27 87 144 27 203 -28
29 -38 32 -106 35 l-75 4 0 -126z m145 59 c31 -30 33 -82 4 -119 -16 -20 -29
-26 -60 -26 l-39 0 0 85 0 85 35 0 c25 0 44 -8 60 -25z"/>
<path d="M5112 4884 c-46 -32 -16 -60 32 -29 28 18 56 10 56 -16 0 -15 -7 -19
-40 -19 -65 0 -99 -50 -66 -95 9 -13 25 -18 52 -17 21 0 54 1 73 1 l33 0 -4
77 c-3 65 -7 79 -27 95 -28 23 -79 25 -109 3z m88 -113 c0 -20 -18 -31 -51
-31 -12 0 -19 7 -19 18 0 25 9 32 42 32 21 0 28 -5 28 -19z"/>
<path d="M5290 4805 c0 -94 0 -95 25 -95 23 0 24 3 27 66 3 70 18 94 52 81 13
-5 16 -21 16 -77 0 -68 1 -70 25 -70 24 0 25 2 25 75 0 62 -4 79 -20 95 -24
24 -63 26 -83 5 -11 -10 -17 -11 -19 -3 -2 6 -14 13 -26 15 -21 3 -22 0 -22
-92z"/>
<path d="M5500 4806 l0 -96 25 0 26 0 -5 93 c-5 83 -7 92 -26 95 -19 3 -20 -2
-20 -92z"/>
<path d="M5615 4877 c-57 -48 -35 -157 35 -172 37 -8 81 8 98 35 11 18 10 20
-12 20 -14 0 -28 -4 -31 -10 -9 -14 -48 -13 -63 2 -28 28 -13 38 53 38 63 0
65 1 65 26 0 36 -50 84 -89 84 -17 0 -41 -10 -56 -23z m93 -39 c3 -15 -4 -18
-37 -18 -43 0 -50 7 -29 28 18 18 62 11 66 -10z"/>
<path d="M4942 4238 c3 -70 19 -97 26 -44 3 20 10 25 34 28 43 4 56 29 35 62
-14 21 -25 26 -58 26 l-40 0 3 -72z m73 27 c0 -13 -8 -21 -22 -23 -19 -3 -23
1 -23 23 0 22 4 26 23 23 14 -2 22 -10 22 -23z"/>
<path d="M5066 4217 c2 -62 24 -78 24 -17 0 33 4 43 20 47 31 8 24 21 -12 21
l-33 0 1 -51z"/>
<path d="M5152 4258 c-7 -7 -12 -24 -12 -38 0 -14 5 -31 12 -38 7 -7 24 -12
38 -12 14 0 31 5 38 12 7 7 12 24 12 38 0 14 -5 31 -12 38 -7 7 -24 12 -38 12
-14 0 -31 -5 -38 -12z m62 -23 c8 -23 -4 -45 -25 -45 -14 0 -19 7 -19 30 0 23
5 30 19 30 10 0 21 -7 25 -15z"/>
<path d="M5271 4257 c-16 -16 -14 -62 4 -77 9 -7 25 -10 41 -6 19 5 25 3 21
-6 -2 -8 -18 -12 -42 -11 -32 2 -35 1 -25 -12 15 -18 61 -20 78 -3 7 7 12 37
12 68 l0 56 -39 1 c-21 1 -43 -3 -50 -10z m63 -22 c8 -23 -4 -45 -25 -45 -14
0 -19 7 -19 30 0 23 5 30 19 30 10 0 21 -7 25 -15z"/>
<path d="M5392 4216 c4 -62 22 -68 26 -8 2 28 8 42 18 42 8 0 14 4 14 9 0 5
-14 9 -30 9 -31 -1 -31 -1 -28 -52z"/>
<path d="M5472 4258 c-21 -21 -14 -66 12 -83 18 -12 30 -13 50 -6 14 6 26 15
26 21 0 13 -6 13 -32 -1 -16 -9 -24 -7 -36 5 -15 15 -13 16 26 16 34 0 42 4
42 18 0 25 -20 42 -50 42 -14 0 -31 -5 -38 -12z m58 -18 c0 -5 -12 -10 -26
-10 -14 0 -23 4 -19 10 3 6 15 10 26 10 10 0 19 -4 19 -10z"/>
<path d="M5587 4263 c-17 -16 -5 -42 25 -52 24 -8 29 -14 20 -23 -8 -8 -15 -8
-27 2 -16 14 -31 8 -21 -8 16 -27 86 -16 86 13 0 9 -16 23 -37 31 -27 12 -33
18 -22 24 8 6 18 5 23 0 6 -6 16 -10 24 -10 12 0 12 3 2 15 -13 15 -61 21 -73
8z"/>
<path d="M5697 4264 c-17 -17 -5 -43 25 -53 24 -8 29 -14 20 -23 -8 -8 -15 -8
-26 1 -9 7 -21 11 -28 9 -22 -8 35 -38 59 -32 46 12 31 64 -19 64 -10 0 -18 5
-18 11 0 7 11 9 31 5 22 -4 29 -2 27 7 -5 13 -60 22 -71 11z"/>
<path d="M6885 4048 c-11 -6 -38 -31 -61 -55 -46 -49 -88 -57 -119 -23 -25 27
-77 43 -106 31 -13 -5 -51 -37 -84 -70 -79 -81 -102 -81 -145 -3 -38 67 -62
67 -124 -2 -28 -31 -57 -56 -64 -56 -7 0 -42 -27 -77 -60 -69 -64 -109 -76
-151 -45 -10 8 -36 15 -56 15 -41 0 -70 -24 -161 -133 -41 -48 -53 -57 -82
-57 -29 0 -45 12 -122 90 -114 115 -131 118 -211 34 -31 -33 -51 -63 -48 -71
3 -8 2 -12 -3 -9 -5 3 -15 -2 -22 -11 -23 -27 -77 -45 -99 -33 -10 5 -25 8
-32 7 -7 -2 -10 -2 -5 0 14 8 -4 23 -28 23 -13 0 -40 -14 -60 -31 -29 -26 -41
-30 -66 -25 -25 5 -30 3 -27 -12 2 -12 15 -18 41 -20 31 -3 45 3 73 27 l34 31
40 -21 c60 -31 101 -20 159 43 115 125 118 128 137 122 11 -4 55 -44 99 -89
125 -128 162 -126 279 14 36 45 77 83 90 87 14 3 39 -3 65 -16 60 -32 100 -21
170 43 31 29 72 60 91 70 19 10 50 39 68 63 l34 45 30 -48 c37 -59 43 -63 93
-63 37 0 47 6 105 65 72 73 95 79 142 40 61 -51 109 -43 179 32 32 34 47 44
65 40 18 -3 24 0 24 13 0 28 -32 37 -65 18z m-268 -64 c-3 -3 -12 -4 -19 -1
-8 3 -5 6 6 6 11 1 17 -2 13 -5z m-357 -78 c0 -2 -8 -10 -17 -17 -16 -13 -17
-12 -4 4 13 16 21 21 21 13z m160 -46 c7 0 11 -3 7 -6 -10 -10 -45 6 -52 23
-5 15 -4 15 13 0 10 -9 25 -17 32 -17z m-240 -14 c0 -2 -7 -7 -16 -10 -8 -3
-12 -2 -9 4 6 10 25 14 25 6z m-267 -83 c-7 -2 -19 -2 -25 0 -7 3 -2 5 12 5
14 0 19 -2 13 -5z m162 -13 c-3 -5 -12 -10 -18 -10 -7 0 -6 4 3 10 19 12 23
12 15 0z m-225 -4 c0 -2 -8 -10 -17 -17 -16 -13 -17 -12 -4 4 13 16 21 21 21
13z m-530 -66 c0 -5 -5 -10 -11 -10 -5 0 -7 5 -4 10 3 6 8 10 11 10 2 0 4 -4
4 -10z m-50 -64 c0 -2 -8 -10 -17 -17 -16 -13 -17 -12 -4 4 13 16 21 21 21 13z
m335 -26 c3 -6 -1 -7 -9 -4 -18 7 -21 14 -7 14 6 0 13 -4 16 -10z"/>
<path d="M6450 3285 c-29 -35 14 -85 54 -63 12 7 16 5 16 -10 0 -30 -27 -48
-51 -34 -26 16 -34 15 -19 -3 15 -18 51 -20 68 -3 7 7 12 33 12 58 0 25 -5 51
-12 58 -17 17 -53 15 -68 -3z m60 -10 c17 -20 5 -45 -20 -45 -23 0 -35 22 -26
45 7 19 30 19 46 0z"/>
<path d="M6642 3288 c-7 -7 -12 -18 -12 -26 0 -9 7 -6 19 9 16 20 21 21 35 10
23 -19 21 -26 -25 -76 l-42 -45 54 1 c50 2 51 2 16 8 l-39 6 31 29 c47 45 40
96 -13 96 -7 0 -17 -5 -24 -12z"/>
<path d="M6763 3289 c-28 -10 -31 -23 -3 -14 18 6 20 2 20 -54 0 -34 3 -61 8
-61 4 0 31 32 60 70 29 39 49 70 44 70 -5 0 -28 -28 -53 -61 l-44 -61 -5 60
c-5 57 -6 59 -27 51z"/>
<path d="M6358 3234 c4 -23 2 -24 -22 -18 -16 4 -26 2 -26 -5 0 -6 11 -11 24
-11 18 0 26 -7 29 -22 l4 -23 2 23 c1 15 7 22 21 22 11 0 20 5 20 11 0 6 -9 8
-20 4 -16 -5 -20 -2 -20 19 0 14 -4 26 -9 26 -4 0 -6 -11 -3 -26z"/>
<path d="M6575 3250 c-3 -5 1 -10 10 -10 9 0 13 5 10 10 -3 6 -8 10 -10 10 -2
0 -7 -4 -10 -10z"/>
<path d="M6870 3215 c-19 -23 -8 -50 22 -53 19 -2 28 2 33 18 12 39 -29 66
-55 35z m40 -26 c0 -23 -28 -26 -37 -3 -6 16 15 37 29 28 4 -3 8 -14 8 -25z"/>
<path d="M6575 3170 c4 -6 11 -8 16 -5 14 9 11 15 -7 15 -8 0 -12 -5 -9 -10z"/>
<path d="M4823 2840 c-44 -18 -53 -56 -53 -230 0 -171 10 -218 48 -239 15 -8
355 -11 1132 -11 l1112 0 29 29 29 29 0 187 0 187 -29 29 -29 29 -1109 -1
c-618 0 -1118 -4 -1130 -9z m217 -220 l0 -60 30 0 c17 0 30 -4 30 -10 0 -5
-18 -10 -40 -10 l-40 0 0 70 c0 40 4 70 10 70 6 0 10 -27 10 -60z m362 13 l12
-48 9 35 c4 19 15 41 22 49 12 12 16 10 25 -15 6 -16 14 -38 19 -49 9 -19 10
-19 10 2 1 32 20 75 30 69 4 -3 1 -35 -7 -71 -19 -78 -40 -84 -58 -15 l-11 45
-13 -47 c-7 -27 -18 -48 -26 -48 -13 0 -44 86 -44 122 0 36 20 17 32 -29z
m339 20 c1 -16 1 -31 0 -35 -2 -14 17 -8 23 7 6 16 36 21 36 6 0 -5 -7 -14
-15 -21 -13 -11 -12 -16 6 -41 16 -23 17 -29 5 -29 -8 0 -21 9 -29 21 -15 20
-35 10 -22 -11 3 -5 -1 -10 -9 -10 -13 0 -16 13 -16 70 0 40 4 70 10 70 6 0
11 -12 11 -27z m335 -13 c8 0 14 -4 14 -10 0 -5 -7 -10 -15 -10 -10 0 -15 -10
-15 -30 0 -20 5 -30 15 -30 8 0 15 -4 15 -10 0 -5 -11 -10 -25 -10 -22 0 -25
4 -25 39 0 22 -5 41 -12 43 -7 3 -5 12 8 26 15 18 20 20 22 7 2 -8 10 -15 18
-15z m834 -5 l34 -35 -29 -30 c-16 -16 -35 -30 -44 -30 -10 0 -6 9 14 30 l29
30 -27 28 c-15 15 -27 31 -27 35 0 15 18 5 50 -28z m-1721 -4 c14 -9 18 -62 6
-81 -9 -14 -58 -13 -73 2 -7 7 -12 24 -12 38 0 44 41 65 79 41z m121 -51 c0
-50 -3 -61 -21 -71 -23 -12 -69 2 -69 21 0 13 6 13 30 0 13 -7 21 -6 30 4 9
12 7 13 -9 9 -28 -7 -51 14 -51 46 0 36 17 51 57 51 l33 0 0 -60z m322 35 c17
-38 -3 -75 -41 -75 -32 0 -51 22 -51 57 0 47 72 61 92 18z m78 13 c0 -5 -7
-11 -15 -14 -9 -4 -15 -19 -15 -40 0 -24 -5 -34 -15 -34 -11 0 -15 12 -15 49
0 49 1 50 30 49 17 -1 30 -5 30 -10z m188 0 c17 -17 15 -63 -2 -77 -8 -7 -27
-11 -42 -9 -37 4 -54 50 -28 79 19 21 54 25 72 7z m52 -28 c0 -29 4 -40 15
-40 8 0 16 10 17 23 0 12 2 28 2 36 1 8 7 16 14 19 8 2 12 -11 12 -46 0 -48 0
-49 -32 -50 -44 -1 -58 13 -58 59 0 28 4 39 15 39 11 0 15 -11 15 -40z"/>
<path d="M5138 2602 c-7 -27 6 -46 27 -39 10 4 15 15 13 29 -4 29 -34 36 -40
10z"/>
<path d="M5244 2605 c-8 -21 2 -45 20 -45 14 0 29 37 20 52 -8 13 -34 9 -40
-7z"/>
<path d="M5577 2614 c-4 -4 -7 -18 -7 -31 0 -17 6 -23 21 -23 16 0 20 5 17 27
-3 26 -18 39 -31 27z"/>
<path d="M5844 2605 c-9 -21 3 -45 21 -45 10 0 15 10 15 30 0 32 -26 43 -36
15z"/>
<path d="M5230 2016 c0 -19 -4 -23 -20 -19 -26 7 -50 -13 -50 -43 0 -33 26
-54 63 -50 l31 3 1 67 c0 46 -4 66 -12 66 -7 0 -13 -11 -13 -24z m0 -60 c0
-32 -20 -44 -36 -22 -16 23 -7 46 17 46 13 0 19 -7 19 -24z"/>
<path d="M4930 2020 c0 -5 9 -10 20 -10 18 0 20 -7 20 -55 0 -42 3 -55 15 -55
12 0 15 13 15 55 0 48 2 55 20 55 11 0 20 5 20 10 0 6 -25 10 -55 10 -30 0
-55 -4 -55 -10z"/>
<path d="M5062 1988 c-7 -7 -12 -25 -12 -40 0 -34 41 -59 68 -41 21 12 28 59
11 79 -14 17 -51 18 -67 2z m53 -38 c0 -29 -32 -41 -41 -16 -9 24 4 48 23 44
12 -2 18 -12 18 -28z"/>
<path d="M5287 1994 c-15 -16 -6 -23 23 -17 19 3 30 1 30 -6 0 -6 -11 -11 -24
-11 -13 0 -29 -7 -36 -15 -19 -23 4 -43 46 -42 l35 1 -3 45 c-3 43 -5 46 -33
49 -17 2 -34 0 -38 -4z m48 -65 c-8 -12 -35 -12 -35 0 0 11 22 20 33 14 4 -2
5 -9 2 -14z"/>
<path d="M5380 1994 c0 -5 8 -28 17 -52 14 -37 14 -45 2 -52 -7 -5 -10 -12 -6
-17 15 -14 39 13 58 66 10 30 17 56 15 59 -10 9 -25 -10 -32 -41 l-7 -32 -12
34 c-10 31 -35 55 -35 35z"/>
<path d="M4966 1664 c-19 -18 -21 -65 -4 -82 17 -17 63 -15 78 3 15 18 7 19
-19 3 -28 -17 -51 -3 -51 32 0 35 23 49 51 31 15 -9 19 -8 19 3 0 27 -50 34
-74 10z"/>
<path d="M5267 1674 c-3 -3 -3 -13 0 -21 5 -11 1 -14 -13 -9 -29 9 -46 -8 -42
-40 2 -25 8 -29 36 -32 l32 -3 0 55 c0 56 -1 61 -13 50z m1 -67 c4 -20 -25
-34 -40 -19 -15 15 -1 44 19 40 10 -2 19 -11 21 -21z"/>
<path d="M5300 1625 c0 -30 5 -55 10 -55 6 0 10 25 10 55 0 30 -4 55 -10 55
-5 0 -10 -25 -10 -55z"/>
<path d="M5077 1643 c-13 -12 -7 -25 6 -14 8 6 17 8 20 4 13 -12 7 -22 -15
-25 -26 -3 -36 -33 -14 -41 8 -3 24 -3 35 0 26 7 30 67 5 77 -20 8 -29 8 -37
-1z m33 -53 c0 -5 -7 -10 -15 -10 -8 0 -15 5 -15 10 0 6 7 10 15 10 8 0 15 -4
15 -10z"/>
<path d="M5150 1608 c0 -21 5 -38 10 -38 6 0 10 14 10 30 0 21 5 30 17 30 22
0 8 13 -17 15 -17 1 -20 -5 -20 -37z"/>
<path d="M5355 1637 c-25 -19 -16 -61 14 -65 13 -2 28 2 35 8 8 9 4 10 -16 5
-18 -5 -28 -3 -28 4 0 6 11 11 25 11 30 0 34 25 6 39 -13 7 -23 6 -36 -2z m40
-17 c3 -5 -3 -10 -14 -10 -12 0 -21 5 -21 10 0 6 6 10 14 10 8 0 18 -4 21 -10z"/>
<path d="M4950 1420 c0 -5 7 -10 15 -10 11 0 15 -12 15 -44 0 -25 5 -48 10
-51 6 -4 10 13 10 44 0 44 3 51 20 51 11 0 20 5 20 10 0 6 -20 10 -45 10 -25
0 -45 -4 -45 -10z"/>
<path d="M5050 1420 c0 -5 5 -10 11 -10 5 0 7 5 4 10 -3 6 -8 10 -11 10 -2 0
-4 -4 -4 -10z"/>
<path d="M5371 1416 c-8 -10 -9 -16 -1 -21 5 -3 10 -1 10 4 0 6 9 11 20 11 28
0 25 -19 -11 -56 l-31 -32 37 -4 c20 -2 38 0 41 4 3 4 -7 8 -21 8 l-27 0 26
31 c29 35 31 40 14 57 -16 16 -43 15 -57 -2z"/>
<path d="M5472 1418 c-17 -17 -15 -74 4 -92 18 -19 20 -19 45 -6 14 8 19 21
19 48 0 40 -14 62 -40 62 -9 0 -21 -5 -28 -12z m54 -23 c10 -26 -5 -65 -26
-65 -21 0 -34 31 -25 60 7 23 43 27 51 5z"/>
<path d="M5730 1420 c0 -5 5 -10 11 -10 5 0 7 5 4 10 -3 6 -8 10 -11 10 -2 0
-4 -4 -4 -10z"/>
<path d="M6320 1400 c0 -27 2 -30 25 -24 22 5 25 3 25 -20 0 -28 -18 -34 -39
-13 -11 10 -13 9 -9 -3 3 -9 17 -15 34 -15 26 0 29 4 29 30 0 23 -5 31 -22 33
-13 2 -23 9 -23 17 0 8 7 11 19 8 10 -3 22 0 25 6 5 7 -5 11 -28 11 -33 0 -36
-2 -36 -30z"/>
<path d="M6457 1423 c-4 -3 -7 -17 -7 -30 0 -20 4 -22 25 -17 22 5 25 3 25
-20 0 -27 -24 -37 -33 -13 -2 6 -8 9 -12 4 -14 -12 11 -29 36 -25 19 2 24 9
24 33 0 23 -5 31 -22 33 -31 5 -29 22 2 22 14 0 25 5 25 10 0 11 -53 14 -63 3z"/>
<path d="M6566 1397 c-33 -43 -33 -57 -1 -57 16 0 25 -6 25 -16 0 -8 5 -12 10
-9 6 4 8 10 5 15 -3 4 -1 10 3 12 11 4 3 88 -9 88 -4 0 -19 -15 -33 -33z m24
-17 c0 -11 -7 -20 -15 -20 -13 0 -14 4 -5 20 6 11 13 20 15 20 3 0 5 -9 5 -20z"/>
<path d="M6410 1384 c0 -8 5 -12 10 -9 6 4 8 11 5 16 -9 14 -15 11 -15 -7z"/>
<path d="M6903 1350 c0 -30 2 -43 4 -27 2 15 2 39 0 55 -2 15 -4 2 -4 -28z"/>
<path d="M5050 1349 c0 -24 4 -38 10 -34 6 3 10 22 10 41 0 19 -4 34 -10 34
-5 0 -10 -18 -10 -41z"/>
<path d="M5090 1348 c0 -26 4 -37 11 -32 6 3 9 15 6 25 -3 10 1 23 9 30 15 12
19 6 27 -41 4 -20 5 -19 6 8 0 17 6 32 11 32 6 0 13 0 18 0 4 1 10 -14 14 -32
6 -31 6 -31 5 7 l-2 40 -52 1 -53 1 0 -39z"/>
<path d="M5224 1376 c-16 -41 24 -83 52 -55 15 15 14 16 -9 12 -14 -3 -28 0
-31 6 -5 7 4 11 23 11 33 0 39 8 19 28 -16 16 -47 15 -54 -2z m46 -6 c0 -5 -7
-10 -15 -10 -8 0 -15 5 -15 10 0 6 7 10 15 10 8 0 15 -4 15 -10z"/>
<path d="M5300 1380 c0 -5 5 -10 10 -10 6 0 10 5 10 10 0 6 -4 10 -10 10 -5 0
-10 -4 -10 -10z"/>
<path d="M5601 1346 c1 -28 3 -33 6 -16 11 57 42 61 44 7 l2 -32 6 34 c8 45
31 54 31 12 0 -16 5 -33 11 -36 7 -5 9 6 7 31 l-3 39 -52 1 -53 1 1 -41z"/>
<path d="M5730 1348 c0 -23 3 -38 7 -34 11 11 13 76 2 76 -5 0 -9 -19 -9 -42z"/>
<path d="M5771 1345 c2 -28 3 -32 6 -13 2 14 11 32 18 38 16 13 21 7 28 -40 3
-21 5 -22 11 -7 5 9 5 28 2 42 -5 21 -12 25 -36 23 -28 -2 -30 -5 -29 -43z"/>
<path d="M6923 1350 c0 -25 2 -35 4 -22 2 12 2 32 0 45 -2 12 -4 2 -4 -23z"/>
<path d="M6670 1336 c0 -20 5 -36 10 -36 6 0 10 14 10 30 0 17 5 30 10 30 6 0
10 -13 10 -30 0 -37 18 -40 22 -3 5 40 28 42 28 2 0 -24 3 -30 11 -22 6 6 9
21 7 34 -3 21 -9 24 -55 27 l-53 3 0 -35z"/>
<path d="M6792 1333 c1 -37 1 -37 5 -5 6 42 33 44 33 2 0 -16 5 -30 11 -30 6
0 9 14 7 33 -2 27 -8 33 -30 35 -26 3 -28 1 -26 -35z"/>
<path d="M6868 1335 c2 -19 6 -35 8 -35 2 0 4 16 4 35 0 19 -4 35 -8 35 -4 0
-6 -16 -4 -35z"/>
<path d="M5305 1330 c-3 -5 -1 -10 4 -10 6 0 11 5 11 10 0 6 -2 10 -4 10 -3 0
-8 -4 -11 -10z"/>
<path d="M6410 1330 c0 -5 5 -10 10 -10 6 0 10 5 10 10 0 6 -4 10 -10 10 -5 0
-10 -4 -10 -10z"/>
<path d="M4968 1043 c-85 -54 -47 -193 53 -193 83 0 131 111 76 175 -29 34
-91 43 -129 18z m70 2 c-8 -8 -68 -25 -68 -19 0 6 41 23 59 23 8 1 12 -1 9 -4z
m28 -48 c17 -10 18 -28 2 -24 -15 2 -27 24 -27 47 1 13 1 13 6 0 3 -8 12 -19
19 -23z m-116 -7 c-7 -13 -9 -37 -6 -54 4 -22 3 -27 -4 -16 -5 8 -10 23 -10
32 0 20 21 70 27 64 3 -2 -1 -14 -7 -26z m92 -16 c16 -34 16 -36 -5 -57 -13
-13 -22 -17 -25 -9 -2 7 -10 12 -18 12 -8 0 -14 9 -14 20 0 14 -5 18 -16 13
-14 -5 -13 -3 2 15 22 27 25 27 17 5 -6 -16 -5 -16 10 -4 9 7 17 20 17 27 0
25 15 14 32 -22z m68 -14 c0 -11 -4 -20 -8 -20 -4 0 -8 9 -8 20 0 11 4 20 8
20 4 0 8 -9 8 -20z m-24 -68 c-17 -16 -18 -16 -5 5 7 12 15 20 18 17 3 -2 -3
-12 -13 -22z m-31 -12 c3 -5 1 -10 -4 -10 -6 0 -11 5 -11 10 0 6 2 10 4 10 3
0 8 -4 11 -10z"/>
<path d="M6229 1025 c-15 -8 -32 -29 -38 -47 -12 -34 -5 -32 13 4 6 12 23 29
37 37 57 32 127 -36 100 -96 -6 -14 -10 -27 -8 -30 2 -2 10 10 17 27 16 39 -1
85 -41 105 -34 18 -47 18 -80 0z"/>
<path d="M5564 1016 c-3 -7 -4 -42 -2 -77 l3 -64 78 -3 77 -3 0 81 0 80 -52
-2 -53 -2 48 -3 47 -4 0 -70 0 -69 -70 0 -70 0 0 69 c0 64 2 70 23 74 l22 4
-23 2 c-12 0 -25 -5 -28 -13z"/>
<path d="M6915 985 c0 -18 3 -31 8 -28 4 2 7 15 7 28 0 13 -3 26 -7 28 -5 3
-8 -10 -8 -28z"/>
<path d="M6850 986 c0 -8 4 -17 9 -20 5 -4 7 3 4 14 -6 23 -13 26 -13 6z"/>
<path d="M5608 983 c17 -2 47 -2 65 0 17 2 3 4 -33 4 -36 0 -50 -2 -32 -4z"/>
<path d="M6251 981 c-10 -7 -7 -9 12 -8 14 1 23 5 20 10 -6 9 -15 9 -32 -2z"/>
<path d="M6190 929 c0 -19 41 -59 61 -59 8 0 3 6 -11 13 -13 7 -30 24 -37 37
-8 15 -13 19 -13 9z"/>
<path d="M6855 904 c46 -7 123 -8 118 -1 -2 4 -34 6 -71 6 -37 -1 -58 -3 -47
-5z"/>
<path d="M6295 880 c-16 -7 -17 -9 -3 -9 9 -1 20 4 23 9 7 11 7 11 -20 0z"/>
<path d="M5482 683 c3 -17 34 -18 448 -20 245 -2 451 1 459 6 43 27 -9 31
-455 31 -428 0 -455 -1 -452 -17z"/>
<path d="M8490 5600 l0 -130 25 0 c24 0 25 3 25 55 0 41 4 55 14 55 8 0 28
-25 45 -55 25 -44 36 -55 56 -55 14 0 25 2 25 5 0 3 -13 26 -29 51 l-29 47 26
22 c35 31 35 80 -2 112 -22 19 -38 23 -92 23 l-64 0 0 -130z m134 68 c17 -27
-5 -52 -48 -56 l-36 -3 0 41 0 41 36 -3 c22 -2 42 -10 48 -20z"/>
<path d="M8770 5663 c-40 -15 -60 -46 -60 -95 0 -64 31 -98 88 -98 37 0 82 28
82 50 0 16 -32 11 -52 -7 -18 -16 -22 -16 -46 -2 -15 8 -28 22 -30 32 -3 15 6
17 66 17 67 0 70 1 65 23 -14 67 -60 99 -113 80z m58 -45 c21 -21 13 -28 -33
-28 -43 0 -45 1 -35 20 12 22 49 27 68 8z"/>
<path d="M8971 5659 c-37 -15 -50 -39 -51 -92 0 -63 31 -97 88 -97 39 0 82 31
82 58 0 19 -34 14 -53 -8 -9 -11 -21 -20 -27 -20 -19 0 -50 40 -50 66 0 56 49
86 80 49 13 -16 50 -21 50 -6 0 5 -8 18 -17 30 -21 25 -68 34 -102 20z"/>
<path d="M9174 5660 c-57 -23 -74 -121 -29 -165 36 -36 88 -34 127 5 27 28 30
36 25 77 -3 25 -13 54 -23 64 -23 22 -71 32 -100 19z m64 -42 c7 -7 12 -31 12
-55 0 -32 -5 -45 -19 -53 -49 -26 -91 44 -61 101 12 21 50 25 68 7z"/>
<path d="M9564 5660 c-57 -23 -74 -121 -29 -165 31 -32 91 -34 123 -5 42 39
18 54 -36 23 -29 -17 -31 -17 -51 1 -39 35 -27 46 49 46 51 0 68 3 66 13 -3 6
-7 24 -10 39 -4 17 -18 34 -36 43 -32 17 -45 18 -76 5z m64 -42 c21 -21 13
-28 -33 -28 -25 0 -45 4 -45 8 0 15 24 32 45 32 12 0 26 -5 33 -12z"/>
<path d="M9798 5663 c-10 -3 -18 -9 -18 -14 0 -5 -5 -9 -11 -9 -5 0 -7 5 -4
10 4 6 -5 10 -19 10 l-26 0 0 -95 c0 -95 0 -95 25 -95 24 0 25 2 25 71 0 69 0
70 30 80 42 15 40 51 -2 42z"/>
<path d="M9320 5653 c0 -4 14 -47 31 -95 26 -73 35 -88 53 -88 17 0 27 16 54
89 17 48 32 91 32 95 0 4 -10 6 -22 4 -18 -2 -26 -16 -40 -62 -10 -33 -20 -62
-22 -64 -3 -2 -13 25 -23 59 -15 51 -23 65 -41 67 -12 2 -22 0 -22 -5z"/>
<path d="M9850 5652 c0 -5 16 -48 35 -97 26 -66 32 -92 24 -106 -5 -11 -16
-19 -24 -19 -8 0 -15 -7 -15 -15 0 -20 44 -19 61 2 8 9 33 67 55 130 41 111
41 113 19 113 -17 0 -25 -9 -34 -42 -30 -100 -31 -100 -55 -28 -18 50 -27 66
-44 68 -12 2 -22 -1 -22 -6z"/>
<path d="M11549 5261 l-29 -29 0 -269 c1 -195 4 -272 13 -284 27 -36 52 -39
307 -39 255 0 280 3 307 39 9 12 12 89 13 284 l0 269 -29 29 -29 29 -262 0
-262 0 -29 -29z"/>
<path d="M13129 5260 l-30 -29 3 -270 c3 -266 3 -271 26 -293 22 -23 27 -23
288 -26 299 -3 305 -2 323 65 6 21 11 138 11 266 0 251 -7 289 -55 307 -15 6
-137 10 -281 10 l-256 0 -29 -30z"/>
<path d="M10170 5177 c-39 -20 -51 -54 -48 -134 4 -78 19 -106 65 -118 63 -15
113 42 113 129 0 46 -19 109 -36 119 -24 13 -71 16 -94 4z m95 -28 c16 -16 20
-33 20 -93 0 -79 -10 -101 -54 -117 -33 -13 -80 7 -92 38 -14 36 -11 119 5
158 21 48 78 55 121 14z"/>
<path d="M10160 5145 c-36 -43 -18 -179 26 -195 52 -20 83 18 85 103 2 63 -6
93 -27 101 -13 5 -13 3 1 -16 24 -35 21 -142 -6 -169 -21 -21 -56 -18 -71 5
-25 38 -19 143 9 171 8 8 10 15 5 15 -5 0 -15 -7 -22 -15z"/>
<path d="M10405 5182 c-49 -10 -72 -64 -40 -96 34 -34 83 -28 105 14 21 39
-20 92 -65 82z m46 -21 c4 -1 9 -10 12 -22 3 -12 3 -18 0 -15 -4 3 -12 -3 -20
-14 -17 -24 -36 -26 -54 -4 -10 12 -10 20 -1 35 7 10 8 19 3 19 -13 0 -22 -30
-16 -51 3 -10 15 -21 26 -24 11 -4 18 -9 16 -12 -9 -9 -46 17 -52 37 -3 10 -1
28 4 38 10 19 14 19 82 13z m4 -70 c-3 -6 -11 -11 -17 -11 -6 0 -6 6 2 15 14
17 26 13 15 -4z"/>
<path d="M9926 5158 c-21 -29 -20 -48 2 -48 13 0 14 2 3 9 -7 5 -10 14 -6 21
6 9 9 9 16 -1 6 -9 9 -10 9 -2 0 14 66 37 80 28 21 -13 30 -54 19 -82 -6 -16
-13 -23 -16 -16 -2 7 0 21 6 32 8 15 6 24 -10 43 -17 19 -18 20 -8 2 18 -32 4
-66 -56 -130 -30 -33 -55 -65 -55 -71 0 -10 23 -13 83 -13 68 0 84 3 84 15 0
12 -13 15 -56 13 l-56 -1 50 -7 c49 -7 48 -7 -22 -8 -40 -1 -73 2 -73 6 0 4
25 32 55 62 65 64 74 56 13 -10 l-43 -45 43 40 c62 57 85 98 77 135 -8 37 -31
50 -84 50 -30 0 -44 -6 -55 -22z m44 8 c0 -2 -7 -7 -16 -10 -8 -3 -12 -2 -9 4
6 10 25 14 25 6z"/>
<path d="M10530 5117 c-25 -34 -44 -68 -42 -75 2 -8 -1 -11 -6 -8 -9 5 -26
-14 -86 -93 -8 -10 -6 -12 6 -10 26 6 212 249 191 249 -10 0 -38 -28 -63 -63z
m30 13 c-17 -22 -34 -40 -37 -40 -2 0 10 18 27 40 17 22 34 40 37 40 2 0 -10
-18 -27 -40z m-110 -144 c0 -2 -8 -10 -17 -17 -16 -13 -17 -12 -4 4 13 16 21
21 21 13z"/>
<path d="M9780 5060 c0 -27 -3 -30 -30 -30 -20 0 -30 -5 -30 -15 0 -10 10 -15
30 -15 25 0 30 -4 30 -25 0 -16 6 -25 15 -25 9 0 15 9 15 24 0 20 6 25 33 29
31 4 31 4 -5 5 -35 2 -38 0 -39 -25 l-1 -28 -7 25 c-5 17 -16 27 -36 31 l-30
7 33 1 c29 1 32 4 33 34 l1 32 7 -30 c5 -25 11 -30 36 -31 28 -1 29 -1 3 3
-23 4 -28 9 -28 34 0 19 -5 29 -15 29 -10 0 -15 -10 -15 -30z"/>
<path d="M10554 5031 c3 -5 -2 -8 -11 -7 -9 0 -18 -4 -20 -11 -3 -8 4 -11 19
-8 13 3 24 9 26 15 2 5 10 10 18 10 9 0 13 -4 10 -8 -2 -4 0 -14 6 -22 8 -12
9 -11 4 5 -6 19 -5 19 8 2 8 -10 11 -28 8 -39 -5 -21 -6 -21 -13 -2 -7 16 -8
17 -8 2 -1 -27 -48 -24 -57 4 -6 19 -7 20 -16 4 -13 -23 16 -56 48 -56 23 0
64 42 64 66 0 23 -38 54 -66 54 -14 0 -23 -4 -20 -9z m-10 -77 c3 -8 2 -12 -4
-9 -6 3 -10 10 -10 16 0 14 7 11 14 -7z"/>
<path d="M8243 4116 l-28 -24 -3 -229 c-4 -256 -1 -285 33 -319 l24 -24 1286
0 1286 0 24 25 25 24 0 261 0 261 -25 24 -24 25 -1285 0 -1285 0 -28 -24z
m428 -216 c13 -7 19 -21 19 -45 0 -36 -20 -55 -59 -55 -17 0 -21 -6 -21 -30 0
-23 -4 -30 -20 -30 -18 0 -20 7 -20 85 l0 85 41 0 c22 0 49 -5 60 -10z m156
-20 c10 -20 10 -29 -3 -47 -13 -20 -13 -26 1 -53 19 -37 19 -40 -3 -40 -11 0
-25 14 -35 35 -9 19 -21 35 -27 35 -5 0 -10 -16 -10 -35 0 -24 -5 -35 -15 -35
-12 0 -15 16 -15 86 l0 85 47 -3 c39 -2 50 -7 60 -28z m83 -55 c0 -78 -2 -85
-20 -85 -18 0 -20 7 -20 85 0 78 2 85 20 85 18 0 20 -7 20 -85z m100 34 l24
-51 25 51 c16 33 31 51 43 51 16 0 18 -10 18 -86 0 -76 -2 -85 -17 -82 -14 3
-17 12 -14 47 3 48 -9 49 -29 1 -17 -41 -32 -38 -57 13 l-22 42 0 -52 c-1 -40
-5 -53 -16 -53 -12 0 -15 16 -15 85 0 76 2 85 18 85 12 0 27 -17 42 -51z m253
-16 c14 -38 29 -76 33 -85 5 -14 1 -18 -14 -18 -12 0 -23 9 -27 20 -4 14 -15
20 -35 20 -20 0 -31 -6 -35 -20 -4 -11 -15 -20 -27 -20 -15 0 -18 4 -13 18 4
9 18 47 32 85 18 47 30 67 43 67 12 0 25 -20 43 -67z m165 55 c18 -18 15 -66
-5 -76 -15 -9 -14 -12 5 -40 27 -37 27 -42 3 -42 -12 0 -29 15 -43 38 l-23 37
-3 -37 c-3 -30 -7 -38 -23 -38 -17 0 -19 8 -19 85 l0 85 48 0 c26 0 53 -5 60
-12z m82 -18 c7 -16 15 -30 19 -30 4 0 12 14 18 30 8 21 18 30 33 30 22 0 22
0 -4 -46 -16 -28 -26 -62 -26 -85 0 -32 -3 -39 -20 -39 -16 0 -20 7 -20 38 0
25 -10 54 -30 85 l-30 47 24 0 c17 0 27 -9 36 -30z m274 14 c18 -17 22 -54 5
-54 -5 0 -3 -10 5 -22 20 -29 20 -34 -4 -58 -14 -14 -33 -20 -65 -20 l-45 0 0
85 0 85 44 0 c27 0 51 -6 60 -16z m86 -37 c0 -64 19 -98 47 -81 14 8 19 26 21
73 2 50 6 61 20 61 15 0 17 -9 14 -67 -4 -78 -20 -103 -65 -103 -52 0 -67 24
-67 102 0 54 3 68 15 68 11 0 15 -13 15 -53z m264 38 c-4 -8 -15 -15 -25 -15
-17 0 -19 -8 -19 -70 0 -63 -2 -70 -20 -70 -18 0 -20 7 -20 70 0 68 -1 70 -25
70 -16 0 -25 6 -25 15 0 12 14 15 70 15 58 0 68 -3 64 -15z m149 0 c-1 -5 -13
-11 -26 -13 -21 -3 -23 -7 -22 -70 0 -56 -3 -67 -17 -70 -16 -3 -18 5 -18 67
0 69 -1 71 -25 71 -16 0 -25 6 -25 15 0 13 12 15 68 13 38 -2 66 -7 65 -13z
m137 5 c23 -12 43 -70 34 -96 -23 -63 -86 -83 -129 -39 -49 48 -18 145 46 145
17 0 39 -4 49 -10z m135 -42 l35 -53 0 53 c0 46 2 52 20 52 20 0 21 -5 18 -82
-4 -103 -18 -110 -68 -36 l-35 52 -3 -52 c-2 -37 -7 -52 -18 -52 -11 0 -14 17
-14 85 0 104 13 110 65 33z"/>
<path d="M8610 3855 c0 -26 18 -33 37 -14 16 16 5 39 -18 39 -14 0 -19 -7 -19
-25z"/>
<path d="M8750 3861 c0 -16 6 -21 26 -21 33 0 30 33 -4 38 -17 3 -22 -2 -22
-17z"/>
<path d="M9208 3842 c-4 -14 0 -22 13 -25 22 -6 24 2 6 28 -13 17 -14 17 -19
-3z"/>
<path d="M9360 3860 c0 -16 5 -21 23 -18 12 2 22 10 22 18 0 8 -10 16 -22 18
-18 3 -23 -2 -23 -18z"/>
<path d="M9717 3860 c7 -25 36 -23 41 3 3 12 -3 17 -21 17 -20 0 -24 -4 -20
-20z"/>
<path d="M9714 3793 c3 -21 25 -27 45 -14 19 12 5 31 -24 31 -16 0 -22 -5 -21
-17z"/>
<path d="M10352 3868 c-7 -7 -12 -27 -12 -45 0 -56 63 -69 76 -16 13 51 -31
94 -64 61z"/>
<path d="M11680 3581 c-53 -17 -91 -43 -118 -83 l-27 -41 -3 -274 c-4 -333 1
-370 63 -430 64 -61 96 -65 445 -61 286 3 296 4 343 26 34 17 55 37 75 70 l27
47 0 310 c0 295 -1 312 -21 345 -23 41 -71 76 -123 90 -42 11 -623 12 -661 1z
m460 -272 c10 -18 2 -30 -72 -107 -98 -101 -137 -150 -167 -210 -19 -37 -26
-43 -49 -40 -71 8 -9 129 148 290 90 92 120 106 140 67z"/>
<path d="M13993 3566 c-104 -34 -205 -123 -249 -221 -100 -219 -7 -488 203
-588 64 -30 75 -32 178 -32 103 0 114 2 177 32 121 57 199 151 233 278 53 204
-46 420 -233 508 -59 28 -79 32 -167 34 -64 2 -115 -2 -142 -11z m89 -303 c22
-20 23 -70 1 -95 -36 -40 -105 -9 -105 47 0 55 64 85 104 48z m175 -18 c5 -15
-200 -250 -217 -250 -31 0 -12 32 85 146 91 107 122 132 132 104z m7 -161 c9
-8 16 -31 16 -49 0 -56 -62 -85 -102 -48 -22 20 -23 70 -1 95 20 22 66 24 87
2z"/>
<path d="M14022 3238 c-16 -16 -15 -33 4 -48 22 -19 54 12 38 37 -14 22 -27
26 -42 11z"/>
<path d="M14202 3058 c-28 -28 2 -67 34 -43 15 11 17 18 8 31 -14 23 -27 27
-42 12z"/>
<path d="M8243 3296 l-28 -24 -3 -256 -3 -257 30 -29 29 -30 1286 0 1285 0 28
24 28 24 0 262 0 262 -28 24 -28 24 -1284 0 -1284 0 -28 -24z m2612 -21 l25
-24 0 -241 0 -241 -25 -24 -24 -25 -1276 0 -1276 0 -24 25 -25 24 0 241 0 241
25 24 24 25 1276 0 1276 0 24 -25z"/>
<path d="M8448 3086 c-47 -24 -32 -69 28 -81 26 -4 34 -11 32 -23 -4 -24 -46
-27 -69 -6 -15 14 -19 14 -19 3 0 -24 22 -39 56 -39 37 0 57 20 52 52 -2 17
-14 26 -46 37 -45 14 -51 34 -13 39 13 2 28 -4 35 -14 9 -12 15 -14 20 -5 18
29 -37 56 -76 37z"/>
<path d="M8570 3015 l0 -75 45 0 c25 0 45 5 45 10 0 6 -16 10 -35 10 -31 0
-35 3 -35 25 0 22 4 25 35 25 19 0 35 5 35 10 0 6 -16 10 -35 10 -28 0 -35 4
-35 20 0 16 7 20 35 20 19 0 35 5 35 10 0 6 -20 10 -45 10 l-45 0 0 -75z"/>
<path d="M8706 3068 c-38 -53 -9 -128 49 -128 32 0 65 21 65 41 0 14 -16 11
-30 -7 -21 -25 -62 -14 -71 19 -17 63 29 100 73 60 23 -20 33 -12 18 16 -16
30 -83 29 -104 -1z"/>
<path d="M8867 3072 c-23 -26 -22 -94 1 -115 24 -22 75 -22 95 1 33 36 30 100
-7 124 -21 14 -73 8 -89 -10z m81 -14 c17 -17 15 -73 -2 -88 -42 -34 -92 22
-68 75 13 27 49 34 70 13z"/>
<path d="M9020 3015 c0 -62 3 -75 16 -75 13 0 15 9 12 50 -1 28 -1 50 2 50 3
0 20 -23 38 -50 17 -28 36 -50 41 -50 5 0 11 34 13 75 2 53 0 75 -9 75 -7 0
-13 -20 -15 -52 l-3 -53 -34 53 c-47 74 -61 69 -61 -23z"/>
<path d="M9188 3015 l4 -75 39 0 c50 0 79 27 79 75 0 49 -29 75 -82 75 l-43 0
3 -75z m89 29 c15 -24 15 -29 2 -53 -9 -16 -25 -27 -42 -29 -27 -3 -27 -2 -27
52 0 53 1 56 25 56 15 0 31 -10 42 -26z"/>
<path d="M9373 3073 c-3 -10 -14 -40 -25 -66 -10 -26 -18 -52 -18 -57 0 -18
19 -10 25 10 5 15 15 20 40 20 25 0 35 -5 40 -20 6 -19 25 -29 25 -13 0 4 -12
38 -26 75 -26 68 -48 86 -61 51z m36 -43 c9 -28 8 -30 -14 -30 -22 0 -23 2
-14 30 6 17 12 30 14 30 2 0 8 -13 14 -30z"/>
<path d="M9490 3015 c0 -60 3 -75 15 -75 10 0 15 10 15 30 0 19 5 30 14 30 7
0 19 -13 26 -30 7 -16 19 -30 26 -30 18 0 18 10 -2 39 -16 22 -16 24 0 33 19
11 21 49 4 66 -7 7 -31 12 -55 12 l-43 0 0 -75z m85 30 c0 -14 -8 -21 -27 -23
-24 -3 -28 0 -28 23 0 23 4 26 28 23 19 -2 27 -9 27 -23z"/>
<path d="M9630 3086 c0 -2 11 -24 25 -47 14 -24 25 -56 25 -71 0 -16 5 -28 10
-28 6 0 10 11 10 25 0 14 11 48 25 75 19 37 22 50 11 50 -7 0 -19 -13 -26 -30
-7 -16 -16 -30 -20 -30 -4 0 -13 14 -20 30 -7 17 -19 30 -26 30 -8 0 -14 -2
-14 -4z"/>
<path d="M9840 3016 l0 -76 36 0 c19 0 44 5 55 10 19 11 26 40 12 54 -5 4 -8
24 -8 44 0 37 0 37 -47 40 l-48 3 0 -75z m75 34 c0 -9 -11 -16 -27 -18 -23 -3
-28 1 -28 18 0 17 5 21 28 18 16 -2 27 -9 27 -18z m5 -55 c17 -20 4 -35 -31
-35 -24 0 -29 4 -29 25 0 20 5 25 24 25 13 0 29 -7 36 -15z"/>
<path d="M9988 3028 c5 -75 13 -88 58 -88 46 0 66 32 63 99 -4 77 -27 68 -31
-11 -3 -63 -3 -63 -33 -63 -30 0 -30 0 -33 63 -2 40 -7 62 -15 62 -8 0 -11
-19 -9 -62z"/>
<path d="M10130 3080 c0 -5 11 -10 25 -10 24 0 25 -2 25 -65 0 -45 4 -65 13
-65 9 0 11 18 9 65 -4 64 -3 65 22 65 14 0 26 5 26 10 0 6 -27 10 -60 10 -33
0 -60 -4 -60 -10z"/>
<path d="M10270 3080 c0 -5 11 -10 25 -10 24 0 25 -2 25 -65 0 -37 4 -65 10
-65 6 0 10 28 10 65 0 63 1 65 25 65 14 0 25 5 25 10 0 6 -27 10 -60 10 -33 0
-60 -4 -60 -10z"/>
<path d="M10427 3072 c-23 -26 -22 -94 1 -115 25 -22 75 -21 95 1 23 26 22 94
-1 115 -25 22 -75 21 -95 -1z m85 -27 c18 -41 0 -80 -37 -80 -23 0 -32 6 -39
27 -14 39 6 78 39 78 18 0 29 -8 37 -25z"/>
<path d="M10580 3015 c0 -88 18 -102 22 -18 l3 58 35 -58 c47 -79 60 -75 60
18 0 43 -4 75 -10 75 -5 0 -10 -25 -10 -57 l0 -56 -37 56 c-52 78 -63 74 -63
-18z"/>
<path d="M8263 2490 c-51 -21 -54 -38 -51 -309 3 -245 3 -251 26 -273 l23 -23
1285 -3 c914 -1 1291 1 1305 9 42 22 49 64 49 299 0 243 -7 282 -55 300 -33
13 -2551 13 -2582 0z m2588 -29 l24 -19 0 -252 0 -252 -24 -19 c-23 -18 -58
-19 -1298 -19 l-1274 0 -24 25 -25 24 0 241 0 241 25 24 24 25 1274 0 c1240 0
1275 -1 1298 -19z"/>
<path d="M8613 2270 c-48 -19 -58 -95 -18 -135 61 -62 144 3 115 90 -6 18 -21
37 -36 44 -29 13 -31 13 -61 1z m69 -45 c24 -53 -26 -109 -68 -75 -17 15 -19
71 -2 88 21 21 57 14 70 -13z"/>
<path d="M8757 2273 c-4 -3 -7 -33 -7 -65 0 -66 21 -98 65 -98 45 0 65 32 65
105 0 50 -3 65 -15 65 -11 0 -15 -16 -17 -67 l-3 -68 -30 0 -30 0 -3 68 c-3
62 -9 77 -25 60z"/>
<path d="M8910 2265 c0 -9 9 -15 25 -15 24 0 25 -2 25 -70 0 -56 3 -70 15 -70
12 0 15 14 15 70 0 68 1 70 25 70 16 0 25 6 25 15 0 12 -14 15 -65 15 -51 0
-65 -3 -65 -15z"/>
<path d="M9070 2195 l0 -85 50 0 c38 0 50 4 50 15 0 10 -11 15 -35 15 l-35 0
0 70 c0 56 -3 70 -15 70 -12 0 -15 -16 -15 -85z"/>
<path d="M9200 2195 c0 -69 3 -85 15 -85 12 0 15 16 15 85 0 69 -3 85 -15 85
-12 0 -15 -16 -15 -85z"/>
<path d="M9270 2195 c0 -65 3 -86 13 -82 7 2 12 23 12 55 0 29 2 52 5 52 3 -1
21 -24 40 -53 19 -28 40 -51 45 -52 6 0 11 36 13 83 2 68 0 82 -13 82 -12 0
-15 -12 -15 -57 l0 -56 -37 53 c-56 79 -63 77 -63 -25z"/>
<path d="M9440 2195 l0 -85 50 0 c38 0 50 4 50 15 0 10 -11 15 -35 15 -31 0
-35 3 -35 25 0 22 4 25 36 25 21 0 33 4 29 10 -3 6 -19 10 -36 10 -22 0 -29 5
-29 20 0 16 7 20 35 20 24 0 35 5 35 15 0 11 -12 15 -50 15 l-50 0 0 -85z"/>
<path d="M9640 2195 l0 -85 33 0 c68 0 106 42 72 80 -12 13 -13 19 -4 22 8 3
10 13 6 30 -7 27 -30 38 -79 38 l-28 0 0 -85z m78 38 c-2 -11 -14 -19 -30 -21
-22 -3 -27 1 -25 17 1 16 8 21 30 21 22 0 28 -4 25 -17z m1 -52 c22 -14 5 -41
-27 -41 -24 0 -28 4 -26 23 1 12 3 23 3 25 2 6 37 1 50 -7z"/>
<path d="M9790 2215 c0 -73 20 -105 65 -105 45 0 65 32 65 105 0 50 -3 65 -15
65 -11 0 -15 -16 -17 -67 l-3 -68 -30 0 -30 0 -3 68 c-2 51 -6 67 -17 67 -12
0 -15 -15 -15 -65z"/>
<path d="M9950 2265 c0 -9 9 -15 25 -15 24 0 25 -2 25 -70 0 -56 3 -70 15 -70
12 0 15 14 15 70 0 68 1 70 25 70 16 0 25 6 25 15 0 12 -14 15 -65 15 -51 0
-65 -3 -65 -15z"/>
<path d="M10100 2265 c0 -9 9 -15 25 -15 24 0 25 -2 25 -71 0 -52 3 -70 13
-67 7 3 13 29 15 71 3 64 4 67 27 67 16 0 25 6 25 15 0 12 -14 15 -65 15 -51
0 -65 -3 -65 -15z"/>
<path d="M10297 2273 c-21 -5 -47 -53 -47 -86 0 -40 32 -71 73 -71 19 0 42 6
50 13 40 32 26 124 -20 142 -25 9 -27 9 -56 2z m65 -48 c24 -53 -26 -109 -68
-75 -17 15 -19 71 -2 88 21 21 57 14 70 -13z"/>
<path d="M10435 2269 c-10 -27 -1 -152 12 -156 8 -3 13 14 15 53 l3 58 38 -57
c20 -31 42 -57 47 -57 6 0 10 36 10 86 0 64 -3 85 -12 81 -8 -2 -13 -23 -13
-55 1 -52 -8 -68 -19 -34 -4 9 -22 35 -40 57 -27 32 -36 37 -41 24z"/>
<path d="M11810 2153 l-109 -108 -3 -155 -3 -155 240 0 240 0 3 150 2 150
-119 113 c-66 61 -125 112 -131 112 -6 0 -61 -48 -120 -107z m222 -40 l98 -98
0 -122 0 -123 -50 0 -49 0 -3 88 -3 87 -90 0 -90 0 -3 -88 -3 -88 -47 3 -47 3
-3 124 -3 125 93 93 c51 51 95 93 98 93 2 0 49 -44 102 -97z m-52 -279 l0 -65
-46 3 -46 3 -4 63 -4 62 50 0 50 0 0 -66z"/>
<path d="M14060 2215 c-58 -19 -115 -66 -143 -118 -30 -57 -31 -184 -2 -242
96 -193 381 -193 471 0 41 87 30 190 -29 267 -65 86 -194 126 -297 93z m198
-61 c25 -15 56 -46 72 -71 72 -114 38 -246 -80 -306 -110 -57 -235 -17 -293
93 -104 197 108 396 301 284z"/>
<path d="M14193 1988 l-52 -51 -26 32 c-37 43 -60 54 -75 36 -9 -11 -3 -24 36
-65 25 -27 54 -50 63 -50 26 0 135 115 128 134 -10 24 -18 20 -74 -36z"/>
<path d="M13006 2197 c-16 -12 -20 -30 -24 -101 l-5 -86 -88 0 c-109 0 -109 0
-109 -143 0 -88 3 -106 18 -120 16 -15 51 -17 290 -17 324 0 302 -10 302 138
0 101 -12 144 -51 178 -41 36 -252 156 -284 161 -17 2 -38 -2 -49 -10z m87
-54 c18 -9 49 -27 70 -41 l38 -25 -42 -43 c-38 -39 -45 -64 -16 -64 6 0 30 19
54 42 l43 42 34 -17 c58 -27 67 -51 64 -163 l-3 -99 -244 -3 c-175 -2 -247 1
-258 9 -10 9 -13 33 -11 98 l3 86 76 3 c83 3 88 -1 89 -66 0 -17 5 -23 18 -20
15 3 17 19 20 141 3 151 3 152 65 120z"/>
<path d="M13014 1349 c-139 -53 -193 -214 -119 -358 45 -89 142 -181 191 -181
9 0 50 33 91 73 112 108 148 193 123 296 -32 133 -168 214 -286 170z m167 -63
c70 -47 100 -166 64 -252 -21 -50 -142 -174 -171 -174 -34 0 -128 108 -154
177 -41 108 -5 212 90 261 55 28 116 24 171 -12z"/>
<path d="M13013 1164 c-6 -16 45 -76 80 -95 35 -20 30 19 -10 65 -40 48 -60
56 -70 30z"/>
<path d="M11917 1343 c-3 -10 -6 -115 -6 -233 -2 -176 1 -219 13 -235 27 -37
35 -3 42 175 8 216 1 310 -26 310 -10 0 -21 -8 -23 -17z"/>
<path d="M8284 1316 l-34 -34 0 -179 c0 -234 -9 -223 174 -223 96 0 137 -4
144 -13 6 -7 12 -35 14 -62 4 -72 28 -72 104 -2 50 46 66 55 108 59 34 4 56
13 75 32 26 26 26 29 29 184 4 183 -4 224 -51 252 -29 18 -52 20 -280 20
l-249 0 -34 -34z m548 -34 c22 -22 23 -29 23 -181 0 -182 -3 -191 -71 -191
-39 0 -50 -6 -101 -52 l-58 -53 -3 37 c-2 26 -11 44 -29 58 -23 18 -40 20
-154 20 -117 0 -129 2 -139 19 -5 11 -10 85 -10 169 0 137 2 152 21 176 l21
27 239 -3 c233 -3 239 -4 261 -26z"/>
<path d="M8484 1115 c-11 -28 7 -35 95 -35 91 0 121 11 100 37 -17 19 -188 18
-195 -2z"/>
<path d="M9376 1329 c-73 -57 -75 -183 -4 -233 34 -24 100 -21 125 7 32 35 43
62 43 107 0 108 -92 175 -164 119z m93 -38 c29 -29 37 -86 18 -127 -18 -36
-59 -54 -86 -37 -45 28 -51 115 -10 159 27 29 52 31 78 5z"/>
<path d="M10514 1330 c-73 -29 -99 -139 -48 -200 74 -88 180 -76 225 26 27 59
19 110 -23 153 -26 27 -37 31 -82 30 -28 0 -60 -4 -72 -9z m120 -51 c40 -32
33 -110 -13 -146 -46 -35 -125 2 -137 62 -15 81 83 136 150 84z"/>
<path d="M14093 1288 c-11 -13 -61 -88 -109 -168 -102 -166 -111 -203 -61
-246 28 -24 32 -24 223 -24 l196 0 29 29 c19 19 29 40 29 58 0 32 -167 326
-202 356 -29 24 -80 22 -105 -5z m73 -26 c12 -7 173 -272 187 -306 5 -12 2
-28 -8 -42 -15 -24 -17 -24 -198 -24 -129 0 -187 4 -195 12 -23 23 -12 64 38
143 27 43 52 83 55 89 3 7 7 7 10 1 38 -68 95 -150 106 -150 28 0 19 35 -31
114 -55 85 -56 98 -19 145 21 27 35 31 55 18z"/>
<path d="M9675 1270 c-12 -20 7 -30 58 -30 l52 0 -203 -203 c-186 -186 -226
-237 -187 -237 15 0 375 353 418 411 42 55 30 69 -58 69 -41 0 -77 -4 -80 -10z"/>
<path d="M12106 1185 c-9 -25 -7 -298 3 -314 5 -8 16 -11 25 -8 14 6 16 27 14
169 -3 141 -5 163 -19 166 -9 2 -19 -4 -23 -13z"/>
<path d="M11726 1104 c-3 -9 -6 -62 -6 -119 0 -78 4 -105 15 -115 28 -24 35 0
35 126 0 115 -1 124 -19 124 -10 0 -22 -7 -25 -16z"/>
<path d="M10502 1009 c-141 -13 -190 -52 -199 -157 -4 -47 -2 -67 11 -87 l16
-25 230 0 c126 0 240 4 254 10 22 8 26 16 26 53 0 68 -26 142 -60 171 -55 45
-106 52 -278 35z m218 -52 c34 -17 66 -68 74 -118 4 -23 5 -43 4 -44 -2 -2
-103 -6 -225 -10 l-223 -8 0 52 c0 114 41 137 250 139 59 1 104 -3 120 -11z"/>
<path d="M9659 949 c-23 -25 -29 -40 -29 -76 0 -107 126 -142 166 -46 20 47 6
102 -33 132 -37 30 -70 26 -104 -10z m89 -31 c20 -20 15 -75 -10 -92 -19 -13
-25 -14 -43 -2 -26 17 -31 62 -9 87 20 22 44 25 62 7z"/>
</g>
</svg>
