<?xml version="1.0" standalone="no"?>
<!DOCTYPE svg PUBLIC "-//W3C//DTD SVG 20010904//EN"
 "http://www.w3.org/TR/2001/REC-SVG-20010904/DTD/svg10.dtd">
<svg version="1.0" xmlns="http://www.w3.org/2000/svg"
 width="1024.000000pt" height="1024.000000pt" viewBox="0 0 1024.000000 1024.000000"
 preserveAspectRatio="xMidYMid meet">

<g transform="translate(0.000000,1024.000000) scale(0.100000,-0.100000)"
fill="#000000" stroke="none">
<path d="M2893 7509 c-74 -29 -113 -76 -113 -138 0 -42 9 -63 72 -167 39 -66
105 -177 146 -249 85 -149 125 -195 202 -233 l55 -27 1180 -5 1180 -5 83 -32
c165 -63 296 -177 369 -319 21 -40 39 -71 41 -69 3 2 -11 35 -29 72 -24 49
-59 94 -124 159 -75 75 -105 98 -175 132 -88 42 -189 71 -250 72 -19 0 -30 4
-23 8 6 4 -32 7 -85 7 -76 0 -96 3 -99 15 -4 13 -3 13 6 0 7 -11 10 -7 9 18
-1 34 -7 39 -26 20 -9 -9 -12 -9 -12 0 0 7 5 12 11 12 7 0 9 10 7 25 -3 13 0
26 6 29 7 3 3 11 -8 20 -12 10 -15 16 -7 16 11 0 11 3 1 15 -17 21 -5 46 17
38 16 -6 16 -5 4 10 -9 12 -10 17 -2 17 7 0 9 5 5 11 -4 8 -17 0 -35 -21 -16
-18 -29 -29 -29 -25 0 5 7 16 16 26 18 20 12 51 -8 45 -7 -1 -10 -1 -5 1 4 3
4 10 0 16 -4 7 1 6 10 -2 20 -16 23 -1 5 18 -11 10 -9 11 7 5 17 -6 18 -5 8 7
-6 8 -11 18 -11 24 0 5 -6 11 -13 14 -8 2 -10 -2 -5 -15 5 -12 4 -15 -2 -9
-16 16 -24 55 -13 55 6 0 1 10 -10 21 -12 12 -17 24 -13 28 5 3 9 20 9 37 1
23 -3 31 -15 29 -8 -1 -18 2 -21 7 -3 5 -9 0 -12 -12 -4 -17 -2 -20 11 -15 13
5 14 3 5 -6 -12 -12 -37 -3 -28 11 3 5 0 12 -6 16 -8 5 -4 13 12 24 18 15 21
21 11 32 -6 8 -8 19 -4 23 4 5 1 5 -5 1 -8 -4 -13 -1 -13 8 0 8 -5 18 -12 22
-8 5 -9 2 -5 -10 4 -9 3 -15 -2 -12 -5 3 -11 15 -14 26 -3 11 -1 18 3 15 5 -3
11 -1 15 5 3 5 1 10 -5 10 -6 0 -9 4 -6 9 3 5 -1 12 -10 15 -23 9 -34 7 -34
-4 0 -5 8 -7 18 -3 14 5 13 3 -3 -10 -19 -15 -20 -14 -23 24 -2 26 -7 37 -15
33 -7 -3 -4 1 6 9 16 13 16 15 2 21 -9 3 -14 10 -10 15 3 6 -3 15 -12 21 -13
8 -14 10 -3 9 8 -1 22 0 30 2 8 2 -55 6 -140 10 -91 3 8 5 240 4 358 -2 406
-4 509 -24 62 -12 116 -20 118 -17 6 5 -156 34 -259 46 -49 6 -604 10 -1353 9
-1244 0 -1271 0 -1322 -20z m1890 4 c-13 -2 -33 -2 -45 0 -13 2 -3 4 22 4 25
0 35 -2 23 -4z m406 -242 c8 -14 7 -20 -3 -24 -9 -4 -13 3 -13 19 0 29 3 30
16 5z m-29 -15 c0 -2 -7 -7 -16 -10 -8 -3 -12 -2 -9 4 6 10 25 14 25 6z m86
-153 c-7 -7 -26 7 -26 19 0 6 6 6 15 -2 9 -7 13 -15 11 -17z m19 -73 c3 -6 -1
-7 -9 -4 -18 7 -21 14 -7 14 6 0 13 -4 16 -10z"/>
<path d="M5870 7456 c20 -7 51 -16 70 -20 l35 -6 -35 14 c-20 7 -51 16 -70 20
l-35 6 35 -14z"/>
<path d="M5126 7447 c3 -10 9 -15 12 -12 3 3 0 11 -7 18 -10 9 -11 8 -5 -6z"/>
<path d="M5990 7420 c8 -5 20 -10 25 -10 6 0 3 5 -5 10 -8 5 -19 10 -25 10 -5
0 -3 -5 5 -10z"/>
<path d="M5110 7410 c0 -5 5 -10 10 -10 6 0 10 5 10 10 0 6 -4 10 -10 10 -5 0
-10 -4 -10 -10z"/>
<path d="M6079 7384 c30 -13 56 -23 58 -20 4 4 -92 46 -104 45 -4 0 16 -11 46
-25z"/>
<path d="M6304 7271 c7 -11 46 -35 46 -28 0 3 -12 12 -26 22 -15 9 -23 12 -20
6z"/>
<path d="M6450 7166 c0 -2 8 -10 18 -17 15 -13 16 -12 3 4 -13 16 -21 21 -21
13z"/>
<path d="M5293 7115 c-16 -17 -17 -39 -3 -30 6 4 19 1 28 -6 16 -13 16 -12 1
6 -9 11 -14 26 -12 33 6 16 1 15 -14 -3z"/>
<path d="M5320 7109 c0 -5 5 -7 10 -4 6 3 10 8 10 11 0 2 -4 4 -10 4 -5 0 -10
-5 -10 -11z"/>
<path d="M6580 7036 c0 -2 8 -10 18 -17 15 -13 16 -12 3 4 -13 16 -21 21 -21
13z"/>
<path d="M5336 6901 c-12 -19 1 -25 26 -12 13 6 15 9 6 7 -9 -3 -18 0 -21 7
-2 8 -6 7 -11 -2z"/>
<path d="M5366 6732 c-3 -5 1 -9 9 -9 8 0 12 4 9 9 -3 4 -7 8 -9 8 -2 0 -6 -4
-9 -8z"/>
<path d="M6113 6239 c19 -55 29 -152 25 -242 -3 -56 -2 -88 2 -72 20 80 2 298
-25 323 -5 4 -6 0 -2 -9z"/>
<path d="M6108 5842 c-22 -60 -15 -67 7 -7 10 25 16 47 14 50 -3 2 -12 -17
-21 -43z"/>
<path d="M6051 5725 c-54 -96 -178 -204 -287 -250 -21 -9 -70 -25 -109 -35
-38 -11 -59 -19 -45 -19 43 -1 176 49 242 90 78 50 174 149 211 217 16 29 26
52 24 52 -3 0 -19 -25 -36 -55z"/>
<path d="M4231 5408 c-125 -18 -218 -84 -242 -173 -14 -50 -6 -132 17 -176 21
-42 971 -1448 992 -1469 13 -13 14 -13 6 0 -4 8 -64 98 -133 200 -224 333
-264 394 -264 407 0 7 -4 10 -9 7 -4 -3 -8 0 -8 5 0 21 -3 26 -22 40 -11 7
-17 20 -14 28 4 9 2 11 -6 7 -8 -5 -9 -2 -5 10 4 10 3 15 -3 11 -6 -3 -10 1
-10 10 0 10 -5 13 -12 9 -10 -6 -10 -4 0 8 9 11 10 18 2 23 -5 3 -10 1 -10 -5
0 -6 -5 -8 -11 -4 -7 4 -8 9 0 17 7 7 14 7 24 -1 8 -7 18 -8 22 -4 5 4 5 1 1
-5 -10 -18 41 -63 62 -56 10 4 12 8 4 11 -7 2 -12 11 -12 20 0 15 2 15 10 2 8
-13 10 -13 10 1 0 23 -30 33 -31 11 -1 -9 -1 -21 0 -25 1 -5 -3 -6 -8 -2 -7 3
-7 15 -1 29 5 13 7 26 4 29 -2 2 3 10 13 18 15 12 16 12 10 -4 -6 -15 -4 -16
13 -7 11 6 20 14 20 19 0 4 10 7 23 6 12 -1 29 1 38 6 10 5 21 3 28 -4 10 -9
11 -8 5 6 -4 11 -13 16 -21 13 -15 -6 -46 17 -36 27 3 4 14 2 24 -4 15 -7 17
-6 13 6 -6 14 7 20 31 15 5 -1 7 2 3 6 -4 3 2 18 12 32 13 16 17 29 11 36 -9
11 10 37 26 35 4 0 9 5 12 12 2 7 -1 9 -8 5 -6 -4 -11 -5 -11 -1 0 3 12 10 26
15 14 6 23 14 19 19 -3 6 3 14 12 20 17 10 17 10 -2 12 -11 1 -23 1 -27 0 -5
0 -8 4 -8 9 0 6 11 8 25 6 32 -6 37 4 20 38 -10 18 -10 24 -2 19 20 -13 55
-10 50 4 -4 9 1 11 13 7 15 -5 16 -4 5 4 -12 8 -12 14 -3 25 14 17 5 50 -11
40 -6 -4 -7 -1 -3 6 6 9 13 8 29 -6 20 -18 20 -18 2 9 -9 15 -21 25 -26 22 -5
-3 -9 0 -9 5 0 6 10 11 23 11 18 0 19 2 7 10 -12 8 -12 10 5 10 15 0 17 2 6 9
-7 5 -12 14 -9 22 3 8 11 5 25 -11 l22 -22 -6 23 c-6 22 -5 23 13 9 17 -14 18
-13 6 1 -10 13 -9 19 3 29 12 10 13 16 3 27 -10 12 -13 12 -20 -2 -5 -8 -13
-13 -19 -10 -5 4 -9 1 -9 -4 0 -6 -5 -11 -12 -11 -6 0 -4 7 5 18 10 10 14 22
10 26 -4 4 1 4 11 0 13 -5 17 -4 13 3 -4 6 0 14 9 17 8 3 12 2 9 -3 -3 -5 -1
-12 4 -15 5 -3 11 1 14 8 4 10 -3 18 -20 23 l-26 9 23 22 c13 12 26 20 29 17
2 -3 -4 -12 -15 -20 -10 -8 -14 -15 -7 -15 6 0 19 8 29 18 10 9 19 16 21 15 8
-7 7 6 -1 14 -6 5 -6 2 -1 -7 5 -8 4 -12 0 -7 -13 12 -16 47 -4 47 5 0 7 -4 4
-10 -3 -6 1 -7 9 -4 10 4 16 1 16 -10 0 -10 5 -13 16 -9 13 5 11 9 -10 22 -14
9 -26 19 -26 24 0 4 5 5 10 2 13 -8 13 18 0 31 -7 7 -6 11 4 11 8 0 13 -4 10
-9 -3 -4 -1 -8 4 -8 6 0 13 7 16 16 9 23 8 27 -10 20 -9 -4 -13 -2 -8 5 4 6 0
16 -7 21 -10 6 -4 7 18 3 18 -4 34 -2 38 4 4 7 0 8 -11 4 -13 -5 -15 -3 -9 7
5 8 4 11 -3 6 -12 -7 -49 41 -38 51 3 3 6 1 6 -5 0 -7 7 -12 15 -12 8 0 15 8
15 18 0 13 2 14 9 4 7 -11 9 -11 14 2 4 9 2 16 -3 16 -19 0 -10 21 12 29 l22
8 -22 5 c-15 4 -25 0 -32 -10 -5 -10 -10 -15 -10 -12 -7 30 -8 41 -3 36 9 -8
44 14 38 24 -3 5 76 9 177 10 101 1 206 5 233 10 28 4 -240 7 -595 7 -355 0
-674 -4 -709 -9z m879 -16 c0 -4 -16 -6 -35 -4 -19 2 -35 6 -35 8 0 2 16 4 35
4 19 0 35 -4 35 -8z m-64 -25 c4 -4 -2 -7 -14 -7 -11 0 -23 4 -26 8 -6 10 30
9 40 -1z m-6 -181 c0 -3 -4 -8 -10 -11 -5 -3 -10 -1 -10 4 0 6 5 11 10 11 6 0
10 -2 10 -4z m10 -41 c0 -1 -6 -8 -14 -15 -12 -9 -15 -8 -13 8 0 12 6 18 14
15 7 -3 13 -6 13 -8z m-183 -334 c0 -11 -5 -18 -9 -15 -4 3 -5 11 -1 19 7 21
12 19 10 -4z m33 -45 c0 -8 -7 -16 -15 -20 -12 -4 -13 -2 -2 14 14 24 17 25
17 6z m-87 -131 c-3 -9 -8 -14 -10 -11 -3 3 -2 9 2 15 9 16 15 13 8 -4z m-59
-119 c-4 -11 -14 -14 -33 -10 -21 5 -23 3 -11 -6 10 -8 11 -10 2 -8 -20 5 -14
23 8 23 10 0 23 4 27 9 4 4 4 7 -2 6 -27 -6 -36 0 -23 13 10 11 15 12 25 1 7
-7 10 -20 7 -28z m-69 -96 c3 -6 -1 -7 -9 -4 -18 7 -21 14 -7 14 6 0 13 -4 16
-10z m-205 -31 c0 -8 4 -8 14 0 11 9 16 9 22 -1 4 -7 4 -10 -1 -6 -4 4 -14 3
-20 -2 -9 -7 -16 -6 -25 5 -9 10 -9 15 -1 15 6 0 11 -5 11 -11z"/>
<path d="M5110 5260 c-12 -8 -10 -10 8 -10 13 0 20 4 17 10 -7 12 -6 12 -25 0z"/>
<path d="M5036 4961 c-4 -5 1 -8 9 -7 21 3 31 16 12 16 -9 0 -18 -4 -21 -9z"/>
<path d="M4980 4790 c-9 -6 -10 -10 -3 -10 6 0 15 5 18 10 8 12 4 12 -15 0z"/>
<path d="M4876 4702 c-2 -4 -1 -14 5 -22 7 -12 9 -10 9 8 0 23 -5 28 -14 14z"/>
<path d="M5960 4670 c-18 -12 -2 -12 25 0 13 6 15 9 5 9 -8 0 -22 -4 -30 -9z"/>
<path d="M5880 4650 c-20 -6 -21 -8 -5 -8 11 0 31 4 45 8 20 6 21 8 5 8 -11 0
-31 -4 -45 -8z"/>
<path d="M5828 4633 c7 -3 16 -2 19 1 4 3 -2 6 -13 5 -11 0 -14 -3 -6 -6z"/>
<path d="M5778 4623 c6 -2 18 -2 25 0 6 3 1 5 -13 5 -14 0 -19 -2 -12 -5z"/>
<path d="M5698 4613 c12 -2 30 -2 40 0 9 3 -1 5 -23 4 -22 0 -30 -2 -17 -4z"/>
<path d="M5428 4594 c-32 -17 -48 -43 -48 -78 0 -24 187 -317 227 -356 9 -8
-37 63 -101 159 -123 183 -133 209 -96 249 25 26 10 23 150 32 l115 7 -110 1
c-80 1 -117 -3 -137 -14z"/>
<path d="M4640 4369 c0 -5 -5 -7 -12 -3 -7 5 -8 3 -2 -7 5 -8 9 -17 9 -21 0
-10 11 -11 28 -5 8 4 8 6 0 6 -6 1 -9 10 -6 21 3 11 0 20 -6 20 -6 0 -11 -5
-11 -11z"/>
<path d="M4670 4369 c0 -5 5 -7 10 -4 6 3 10 0 10 -7 0 -10 2 -10 9 1 5 7 14
10 20 7 6 -4 11 -2 11 3 0 6 -13 11 -30 11 -16 0 -30 -5 -30 -11z"/>
<path d="M5630 4120 c6 -11 13 -20 16 -20 2 0 0 9 -6 20 -6 11 -13 20 -16 20
-2 0 0 -9 6 -20z"/>
<path d="M5650 4086 c0 -2 8 -10 18 -17 15 -13 16 -12 3 4 -13 16 -21 21 -21
13z"/>
<path d="M5025 3546 c10 -14 19 -26 22 -26 7 0 -17 39 -28 46 -6 3 -3 -5 6
-20z"/>
<path d="M5090 3450 c12 -16 24 -30 26 -30 3 0 -4 14 -16 30 -12 17 -24 30
-26 30 -3 0 4 -13 16 -30z"/>
</g>
</svg>
